<svg xmlns="http://www.w3.org/2000/svg" xmlns:xlink="http://www.w3.org/1999/xlink" width="500" zoomAndPan="magnify" viewBox="0 0 375 374.999991" height="500" preserveAspectRatio="xMidYMid meet" version="1.0"><defs><g/><clipPath id="id1"><path d="M 106.003906 80.015625 L 268.753906 80.015625 L 268.753906 242.765625 L 106.003906 242.765625 Z M 106.003906 80.015625 " clip-rule="nonzero"/></clipPath></defs><g clip-path="url(#id1)"><path fill="#67dcff" d="M 243.636719 107.097656 C 243.636719 107.097656 251.027344 112.78125 261.621094 113.636719 C 262.816406 113.71875 263.414062 115.085938 262.644531 116.027344 C 259.273438 120.128906 250.34375 127.773438 233.984375 121.75 C 233.984375 121.75 239.449219 128.757812 245.730469 132.003906 C 246.753906 132.558594 246.753906 134.011719 245.730469 134.566406 C 240.304688 137.472656 227.277344 142.511719 218.648438 130.378906 C 218.648438 130.378906 208.996094 144.988281 193.0625 132.386719 L 193.0625 237.34375 C 193.0625 239.476562 191.820312 241.316406 190.027344 242.210938 C 189.257812 242.597656 188.40625 242.765625 187.464844 242.765625 C 184.519531 242.683594 182.210938 240.160156 182.210938 237.171875 L 182.210938 132.34375 L 181.613281 132.34375 C 165.636719 144.988281 156.027344 130.335938 156.027344 130.335938 C 147.398438 142.425781 134.410156 137.386719 128.945312 134.523438 C 127.917969 133.96875 127.917969 132.472656 128.945312 131.960938 C 135.265625 128.714844 140.691406 121.707031 140.691406 121.707031 C 124.371094 127.730469 115.445312 120.085938 112.070312 116.027344 C 111.300781 115.128906 111.898438 113.761719 113.09375 113.636719 C 123.6875 112.78125 131.078125 107.097656 131.078125 107.097656 C 112.710938 108.636719 107.714844 97.746094 106.390625 92.789062 C 106.089844 91.722656 107.03125 90.738281 108.097656 90.996094 C 115.230469 92.535156 123.988281 92.40625 133.257812 91.421875 C 137.785156 90.953125 142.398438 90.269531 147.054688 89.457031 C 167.984375 85.785156 169.351562 116.070312 181.65625 116.070312 L 182.253906 116.070312 L 182.253906 105.902344 C 177.085938 103.640625 173.625 98.171875 174.308594 91.976562 C 175.035156 85.785156 180.074219 80.828125 186.269531 80.230469 C 188.234375 80.015625 190.15625 80.273438 191.90625 80.828125 C 197.246094 82.621094 201.132812 87.664062 201.132812 93.601562 C 201.132812 99.113281 197.84375 103.808594 193.105469 105.902344 L 193.105469 116.070312 C 205.40625 116.070312 206.730469 85.828125 227.703125 89.457031 C 241.886719 91.933594 256.066406 93.257812 266.660156 90.996094 C 267.730469 90.78125 268.667969 91.765625 268.371094 92.789062 C 267.003906 97.703125 262.003906 108.636719 243.636719 107.097656 Z M 243.636719 107.097656 " fill-opacity="1" fill-rule="nonzero"/></g><path fill="#587dff" d="M 233.429688 147.679688 C 233.429688 123.074219 213.566406 120.683594 206.132812 124.699219 C 204.808594 125.425781 203.910156 126.320312 203.570312 127.347656 C 201.304688 134.140625 204.679688 144.691406 217.152344 146.183594 C 217.152344 146.183594 225.183594 157.546875 187.679688 164.425781 C 150.171875 157.589844 158.203125 146.183594 158.203125 146.183594 C 170.632812 144.691406 174.050781 134.140625 171.789062 127.347656 C 171.617188 126.792969 171.277344 126.28125 170.761719 125.808594 C 165.253906 120.46875 141.929688 120.984375 141.929688 147.679688 C 141.929688 160.28125 151.328125 166.988281 163.160156 171.300781 C 151.285156 177.238281 148.722656 185.527344 150.984375 194.027344 C 152.308594 199.027344 158.84375 205.859375 172.601562 210.945312 C 169.4375 213.078125 167.21875 215.640625 166.535156 218.929688 C 165.125 225.59375 168.414062 230.335938 171.191406 232.984375 C 171.917969 233.667969 173.070312 232.984375 172.8125 232.003906 C 172.8125 231.960938 172.769531 231.917969 172.769531 231.832031 C 171.316406 225.9375 175.71875 219.828125 187.722656 215.515625 C 199.894531 219.871094 204.253906 226.066406 202.628906 232.003906 C 202.375 232.941406 203.570312 233.625 204.253906 232.941406 C 207.027344 230.292969 210.320312 225.550781 208.910156 218.890625 C 208.226562 215.640625 205.960938 213.078125 202.84375 210.902344 C 216.597656 205.859375 223.132812 198.984375 224.457031 193.984375 C 226.722656 185.441406 224.160156 177.199219 212.285156 171.261719 C 224.074219 167.03125 233.429688 160.324219 233.429688 147.679688 Z M 211.300781 189.542969 C 211.300781 197.0625 199.296875 200.351562 187.636719 204.28125 C 176.015625 200.351562 163.972656 197.0625 163.972656 189.542969 C 163.972656 182.964844 174.648438 180.359375 187.636719 177.582031 C 200.621094 180.359375 211.300781 182.921875 211.300781 189.542969 Z M 211.300781 189.542969 " fill-opacity="1" fill-rule="nonzero"/><path fill="#2720ff" d="M 202.757812 210.945312 C 200.109375 211.925781 197.160156 212.824219 193.957031 213.632812 C 191.652344 214.234375 189.558594 214.875 187.636719 215.558594 C 185.714844 214.875 183.621094 214.234375 181.3125 213.632812 C 178.109375 212.824219 175.164062 211.925781 172.515625 210.945312 C 176.53125 208.210938 182.039062 206.160156 187.636719 204.238281 C 193.230469 206.160156 198.742188 208.210938 202.757812 210.945312 Z M 190.457031 164.894531 C 189.472656 164.722656 188.574219 164.554688 187.679688 164.425781 C 186.78125 164.597656 185.84375 164.765625 184.902344 164.894531 C 175.546875 166.433594 168.457031 168.652344 163.160156 171.300781 C 170.933594 174.121094 179.734375 175.875 187.679688 177.582031 C 195.625 175.875 204.464844 174.121094 212.199219 171.300781 C 206.945312 168.652344 199.808594 166.476562 190.457031 164.894531 Z M 190.457031 164.894531 " fill-opacity="1" fill-rule="nonzero"/><path fill="#b0c5ff" d="M 157.433594 133.882812 C 156.410156 133.882812 155.46875 133.242188 155.085938 132.300781 C 154.703125 131.320312 155 130.210938 155.8125 129.527344 C 156.625 128.800781 157.863281 128.757812 158.757812 129.3125 C 159.613281 129.867188 160.082031 130.894531 159.871094 131.917969 C 159.65625 133.027344 158.632812 133.882812 157.433594 133.882812 Z M 219.714844 131.917969 C 219.929688 130.894531 219.503906 129.824219 218.605469 129.269531 C 217.707031 128.714844 216.511719 128.757812 215.699219 129.441406 C 214.890625 130.082031 214.589844 131.234375 214.933594 132.21875 C 215.273438 133.199219 216.257812 133.882812 217.28125 133.882812 C 218.433594 133.882812 219.460938 133.027344 219.714844 131.917969 Z M 219.714844 131.917969 " fill-opacity="1" fill-rule="nonzero"/><g fill="#2720ff" fill-opacity="1"><g transform="translate(112.535666, 271.782637)"><g><path d="M 15.34375 -17.421875 L 15.34375 0 L 13.078125 0 L 13.078125 -7.90625 L 4.203125 -7.90625 L 4.203125 0 L 1.921875 0 L 1.921875 -17.421875 L 4.203125 -17.421875 L 4.203125 -9.78125 L 13.078125 -9.78125 L 13.078125 -17.421875 Z M 15.34375 -17.421875 "/></g></g></g><g fill="#2720ff" fill-opacity="1"><g transform="translate(129.832929, 271.782637)"><g><path d="M 9.828125 0.171875 C 8.210938 0.171875 6.738281 -0.203125 5.40625 -0.953125 C 4.070312 -1.710938 3.015625 -2.769531 2.234375 -4.125 C 1.460938 -5.488281 1.078125 -7.019531 1.078125 -8.71875 C 1.078125 -10.425781 1.460938 -11.957031 2.234375 -13.3125 C 3.015625 -14.664062 4.070312 -15.722656 5.40625 -16.484375 C 6.738281 -17.242188 8.210938 -17.625 9.828125 -17.625 C 11.460938 -17.625 12.945312 -17.242188 14.28125 -16.484375 C 15.613281 -15.722656 16.660156 -14.664062 17.421875 -13.3125 C 18.191406 -11.96875 18.578125 -10.4375 18.578125 -8.71875 C 18.578125 -7.007812 18.191406 -5.476562 17.421875 -4.125 C 16.660156 -2.769531 15.613281 -1.710938 14.28125 -0.953125 C 12.945312 -0.203125 11.460938 0.171875 9.828125 0.171875 Z M 9.828125 -1.796875 C 11.046875 -1.796875 12.140625 -2.078125 13.109375 -2.640625 C 14.085938 -3.210938 14.851562 -4.023438 15.40625 -5.078125 C 15.96875 -6.128906 16.25 -7.34375 16.25 -8.71875 C 16.25 -10.125 15.96875 -11.347656 15.40625 -12.390625 C 14.851562 -13.429688 14.09375 -14.234375 13.125 -14.796875 C 12.15625 -15.367188 11.054688 -15.65625 9.828125 -15.65625 C 8.585938 -15.65625 7.484375 -15.367188 6.515625 -14.796875 C 5.554688 -14.234375 4.796875 -13.429688 4.234375 -12.390625 C 3.679688 -11.347656 3.40625 -10.125 3.40625 -8.71875 C 3.40625 -7.34375 3.679688 -6.128906 4.234375 -5.078125 C 4.796875 -4.023438 5.5625 -3.210938 6.53125 -2.640625 C 7.507812 -2.078125 8.609375 -1.796875 9.828125 -1.796875 Z M 9.828125 -1.796875 "/></g></g></g><g fill="#2720ff" fill-opacity="1"><g transform="translate(149.479813, 271.782637)"><g><path d="M 7.453125 0.171875 C 6.296875 0.171875 5.265625 -0.03125 4.359375 -0.4375 C 3.453125 -0.84375 2.738281 -1.40625 2.21875 -2.125 C 1.707031 -2.851562 1.441406 -3.695312 1.421875 -4.65625 L 3.84375 -4.65625 C 3.925781 -3.832031 4.265625 -3.140625 4.859375 -2.578125 C 5.453125 -2.023438 6.316406 -1.75 7.453125 -1.75 C 8.535156 -1.75 9.390625 -2.019531 10.015625 -2.5625 C 10.640625 -3.101562 10.953125 -3.800781 10.953125 -4.65625 C 10.953125 -5.320312 10.765625 -5.863281 10.390625 -6.28125 C 10.023438 -6.695312 9.566406 -7.007812 9.015625 -7.21875 C 8.472656 -7.4375 7.734375 -7.671875 6.796875 -7.921875 C 5.648438 -8.222656 4.726562 -8.523438 4.03125 -8.828125 C 3.34375 -9.128906 2.753906 -9.597656 2.265625 -10.234375 C 1.773438 -10.878906 1.53125 -11.742188 1.53125 -12.828125 C 1.53125 -13.773438 1.769531 -14.613281 2.25 -15.34375 C 2.726562 -16.082031 3.40625 -16.648438 4.28125 -17.046875 C 5.15625 -17.453125 6.160156 -17.65625 7.296875 -17.65625 C 8.929688 -17.65625 10.269531 -17.242188 11.3125 -16.421875 C 12.351562 -15.609375 12.941406 -14.523438 13.078125 -13.171875 L 10.578125 -13.171875 C 10.492188 -13.835938 10.140625 -14.425781 9.515625 -14.9375 C 8.898438 -15.445312 8.085938 -15.703125 7.078125 -15.703125 C 6.128906 -15.703125 5.351562 -15.453125 4.75 -14.953125 C 4.144531 -14.460938 3.84375 -13.78125 3.84375 -12.90625 C 3.84375 -12.269531 4.019531 -11.75 4.375 -11.34375 C 4.738281 -10.945312 5.179688 -10.644531 5.703125 -10.4375 C 6.234375 -10.226562 6.972656 -9.988281 7.921875 -9.71875 C 9.078125 -9.40625 10.003906 -9.09375 10.703125 -8.78125 C 11.398438 -8.476562 12 -8.003906 12.5 -7.359375 C 13 -6.722656 13.25 -5.851562 13.25 -4.75 C 13.25 -3.894531 13.023438 -3.09375 12.578125 -2.34375 C 12.128906 -1.59375 11.460938 -0.984375 10.578125 -0.515625 C 9.691406 -0.0546875 8.648438 0.171875 7.453125 0.171875 Z M 7.453125 0.171875 "/></g></g></g><g fill="#2720ff" fill-opacity="1"><g transform="translate(164.152488, 271.782637)"><g><path d="M 13.578125 -12.328125 C 13.578125 -10.878906 13.078125 -9.675781 12.078125 -8.71875 C 11.085938 -7.757812 9.578125 -7.28125 7.546875 -7.28125 L 4.203125 -7.28125 L 4.203125 0 L 1.921875 0 L 1.921875 -17.421875 L 7.546875 -17.421875 C 9.515625 -17.421875 11.007812 -16.945312 12.03125 -16 C 13.0625 -15.050781 13.578125 -13.828125 13.578125 -12.328125 Z M 7.546875 -9.15625 C 8.816406 -9.15625 9.75 -9.425781 10.34375 -9.96875 C 10.945312 -10.519531 11.25 -11.304688 11.25 -12.328125 C 11.25 -14.472656 10.015625 -15.546875 7.546875 -15.546875 L 4.203125 -15.546875 L 4.203125 -9.15625 Z M 7.546875 -9.15625 "/></g></g></g><g fill="#2720ff" fill-opacity="1"><g transform="translate(178.625201, 271.782637)"><g><path d="M 4.203125 -17.421875 L 4.203125 0 L 1.921875 0 L 1.921875 -17.421875 Z M 4.203125 -17.421875 "/></g></g></g><g fill="#2720ff" fill-opacity="1"><g transform="translate(184.774225, 271.782637)"><g><path d="M 12.65625 -17.421875 L 12.65625 -15.578125 L 7.90625 -15.578125 L 7.90625 0 L 5.625 0 L 5.625 -15.578125 L 0.84375 -15.578125 L 0.84375 -17.421875 Z M 12.65625 -17.421875 "/></g></g></g><g fill="#2720ff" fill-opacity="1"><g transform="translate(198.297078, 271.782637)"><g><path d="M 12.21875 -3.875 L 4.625 -3.875 L 3.21875 0 L 0.828125 0 L 7.125 -17.328125 L 9.75 -17.328125 L 16.03125 0 L 13.625 0 Z M 11.578125 -5.71875 L 8.421875 -14.53125 L 5.28125 -5.71875 Z M 11.578125 -5.71875 "/></g></g></g><g fill="#2720ff" fill-opacity="1"><g transform="translate(215.144405, 271.782637)"><g><path d="M 4.203125 -1.84375 L 10.296875 -1.84375 L 10.296875 0 L 1.921875 0 L 1.921875 -17.421875 L 4.203125 -17.421875 Z M 4.203125 -1.84375 "/></g></g></g><g fill="#2720ff" fill-opacity="1"><g transform="translate(225.942695, 271.782637)"><g><path d="M 4.203125 -17.421875 L 4.203125 0 L 1.921875 0 L 1.921875 -17.421875 Z M 4.203125 -17.421875 "/></g></g></g><g fill="#2720ff" fill-opacity="1"><g transform="translate(232.091719, 271.782637)"><g><path d="M 12.65625 -17.421875 L 12.65625 -15.578125 L 7.90625 -15.578125 L 7.90625 0 L 5.625 0 L 5.625 -15.578125 L 0.84375 -15.578125 L 0.84375 -17.421875 Z M 12.65625 -17.421875 "/></g></g></g><g fill="#2720ff" fill-opacity="1"><g transform="translate(245.614572, 271.782637)"><g><path d="M 12.21875 -3.875 L 4.625 -3.875 L 3.21875 0 L 0.828125 0 L 7.125 -17.328125 L 9.75 -17.328125 L 16.03125 0 L 13.625 0 Z M 11.578125 -5.71875 L 8.421875 -14.53125 L 5.28125 -5.71875 Z M 11.578125 -5.71875 "/></g></g></g><g fill="#2720ff" fill-opacity="1"><g transform="translate(130.672583, 291.132667)"><g><path d="M 10.96875 -9.6875 L 10.96875 0 L 9.703125 0 L 9.703125 -7.21875 L 6.484375 0 L 5.59375 0 L 2.359375 -7.234375 L 2.359375 0 L 1.078125 0 L 1.078125 -9.6875 L 2.453125 -9.6875 L 6.03125 -1.6875 L 9.625 -9.6875 Z M 10.96875 -9.6875 "/></g></g></g><g fill="#2720ff" fill-opacity="1"><g transform="translate(142.719858, 291.132667)"><g><path d="M 2.359375 -8.71875 L 2.359375 -5.453125 L 5.90625 -5.453125 L 5.90625 -4.40625 L 2.359375 -4.40625 L 2.359375 -1.046875 L 6.328125 -1.046875 L 6.328125 0 L 1.078125 0 L 1.078125 -9.765625 L 6.328125 -9.765625 L 6.328125 -8.71875 Z M 2.359375 -8.71875 "/></g></g></g><g fill="#2720ff" fill-opacity="1"><g transform="translate(149.897855, 291.132667)"><g><path d="M 4.109375 -9.765625 C 5.179688 -9.765625 6.101562 -9.5625 6.875 -9.15625 C 7.65625 -8.757812 8.253906 -8.191406 8.671875 -7.453125 C 9.085938 -6.722656 9.296875 -5.859375 9.296875 -4.859375 C 9.296875 -3.859375 9.085938 -2.988281 8.671875 -2.25 C 8.253906 -1.519531 7.65625 -0.960938 6.875 -0.578125 C 6.101562 -0.191406 5.179688 0 4.109375 0 L 1.078125 0 L 1.078125 -9.765625 Z M 4.109375 -1.046875 C 5.367188 -1.046875 6.332031 -1.378906 7 -2.046875 C 7.664062 -2.710938 8 -3.648438 8 -4.859375 C 8 -6.066406 7.660156 -7.007812 6.984375 -7.6875 C 6.316406 -8.375 5.359375 -8.71875 4.109375 -8.71875 L 2.359375 -8.71875 L 2.359375 -1.046875 Z M 4.109375 -1.046875 "/></g></g></g><g fill="#2720ff" fill-opacity="1"><g transform="translate(159.790333, 291.132667)"><g><path d="M 2.359375 -9.765625 L 2.359375 0 L 1.078125 0 L 1.078125 -9.765625 Z M 2.359375 -9.765625 "/></g></g></g><g fill="#2720ff" fill-opacity="1"><g transform="translate(163.232407, 291.132667)"><g><path d="M 0.609375 -4.890625 C 0.609375 -5.835938 0.820312 -6.691406 1.25 -7.453125 C 1.675781 -8.210938 2.257812 -8.804688 3 -9.234375 C 3.738281 -9.671875 4.5625 -9.890625 5.46875 -9.890625 C 6.53125 -9.890625 7.457031 -9.628906 8.25 -9.109375 C 9.050781 -8.597656 9.632812 -7.875 10 -6.9375 L 8.46875 -6.9375 C 8.195312 -7.519531 7.804688 -7.96875 7.296875 -8.28125 C 6.785156 -8.601562 6.175781 -8.765625 5.46875 -8.765625 C 4.789062 -8.765625 4.179688 -8.601562 3.640625 -8.28125 C 3.097656 -7.96875 2.671875 -7.519531 2.359375 -6.9375 C 2.054688 -6.351562 1.90625 -5.671875 1.90625 -4.890625 C 1.90625 -4.109375 2.054688 -3.425781 2.359375 -2.84375 C 2.671875 -2.257812 3.097656 -1.804688 3.640625 -1.484375 C 4.179688 -1.171875 4.789062 -1.015625 5.46875 -1.015625 C 6.175781 -1.015625 6.785156 -1.171875 7.296875 -1.484375 C 7.804688 -1.796875 8.195312 -2.25 8.46875 -2.84375 L 10 -2.84375 C 9.632812 -1.90625 9.050781 -1.179688 8.25 -0.671875 C 7.457031 -0.171875 6.53125 0.078125 5.46875 0.078125 C 4.5625 0.078125 3.738281 -0.128906 3 -0.546875 C 2.257812 -0.972656 1.675781 -1.5625 1.25 -2.3125 C 0.820312 -3.070312 0.609375 -3.929688 0.609375 -4.890625 Z M 0.609375 -4.890625 "/></g></g></g><g fill="#2720ff" fill-opacity="1"><g transform="translate(174.034381, 291.132667)"><g><path d="M 6.84375 -2.171875 L 2.59375 -2.171875 L 1.8125 0 L 0.46875 0 L 3.984375 -9.703125 L 5.453125 -9.703125 L 8.96875 0 L 7.625 0 Z M 6.484375 -3.203125 L 4.71875 -8.140625 L 2.953125 -3.203125 Z M 6.484375 -3.203125 "/></g></g></g><g fill="#2720ff" fill-opacity="1"><g transform="translate(183.465114, 291.132667)"><g><path d="M 2.359375 -1.03125 L 5.765625 -1.03125 L 5.765625 0 L 1.078125 0 L 1.078125 -9.765625 L 2.359375 -9.765625 Z M 2.359375 -1.03125 "/></g></g></g><g fill="#2720ff" fill-opacity="1"><g transform="translate(189.509745, 291.132667)"><g/></g></g><g fill="#2720ff" fill-opacity="1"><g transform="translate(193.245657, 291.132667)"><g><path d="M 0.609375 -4.890625 C 0.609375 -5.835938 0.820312 -6.691406 1.25 -7.453125 C 1.675781 -8.210938 2.257812 -8.804688 3 -9.234375 C 3.738281 -9.671875 4.5625 -9.890625 5.46875 -9.890625 C 6.53125 -9.890625 7.457031 -9.628906 8.25 -9.109375 C 9.050781 -8.597656 9.632812 -7.875 10 -6.9375 L 8.46875 -6.9375 C 8.195312 -7.519531 7.804688 -7.96875 7.296875 -8.28125 C 6.785156 -8.601562 6.175781 -8.765625 5.46875 -8.765625 C 4.789062 -8.765625 4.179688 -8.601562 3.640625 -8.28125 C 3.097656 -7.96875 2.671875 -7.519531 2.359375 -6.9375 C 2.054688 -6.351562 1.90625 -5.671875 1.90625 -4.890625 C 1.90625 -4.109375 2.054688 -3.425781 2.359375 -2.84375 C 2.671875 -2.257812 3.097656 -1.804688 3.640625 -1.484375 C 4.179688 -1.171875 4.789062 -1.015625 5.46875 -1.015625 C 6.175781 -1.015625 6.785156 -1.171875 7.296875 -1.484375 C 7.804688 -1.796875 8.195312 -2.25 8.46875 -2.84375 L 10 -2.84375 C 9.632812 -1.90625 9.050781 -1.179688 8.25 -0.671875 C 7.457031 -0.171875 6.53125 0.078125 5.46875 0.078125 C 4.5625 0.078125 3.738281 -0.128906 3 -0.546875 C 2.257812 -0.972656 1.675781 -1.5625 1.25 -2.3125 C 0.820312 -3.070312 0.609375 -3.929688 0.609375 -4.890625 Z M 0.609375 -4.890625 "/></g></g></g><g fill="#2720ff" fill-opacity="1"><g transform="translate(204.047632, 291.132667)"><g><path d="M 2.359375 -8.71875 L 2.359375 -5.453125 L 5.90625 -5.453125 L 5.90625 -4.40625 L 2.359375 -4.40625 L 2.359375 -1.046875 L 6.328125 -1.046875 L 6.328125 0 L 1.078125 0 L 1.078125 -9.765625 L 6.328125 -9.765625 L 6.328125 -8.71875 Z M 2.359375 -8.71875 "/></g></g></g><g fill="#2720ff" fill-opacity="1"><g transform="translate(211.225629, 291.132667)"><g><path d="M 8.75 0 L 7.46875 0 L 2.359375 -7.765625 L 2.359375 0 L 1.078125 0 L 1.078125 -9.765625 L 2.359375 -9.765625 L 7.46875 -2.015625 L 7.46875 -9.765625 L 8.75 -9.765625 Z M 8.75 0 "/></g></g></g><g fill="#2720ff" fill-opacity="1"><g transform="translate(221.062134, 291.132667)"><g><path d="M 7.078125 -9.765625 L 7.078125 -8.71875 L 4.421875 -8.71875 L 4.421875 0 L 3.15625 0 L 3.15625 -8.71875 L 0.46875 -8.71875 L 0.46875 -9.765625 Z M 7.078125 -9.765625 "/></g></g></g><g fill="#2720ff" fill-opacity="1"><g transform="translate(228.631908, 291.132667)"><g><path d="M 2.359375 -8.71875 L 2.359375 -5.453125 L 5.90625 -5.453125 L 5.90625 -4.40625 L 2.359375 -4.40625 L 2.359375 -1.046875 L 6.328125 -1.046875 L 6.328125 0 L 1.078125 0 L 1.078125 -9.765625 L 6.328125 -9.765625 L 6.328125 -8.71875 Z M 2.359375 -8.71875 "/></g></g></g><g fill="#2720ff" fill-opacity="1"><g transform="translate(235.809905, 291.132667)"><g><path d="M 6.21875 0 L 3.890625 -3.984375 L 2.359375 -3.984375 L 2.359375 0 L 1.078125 0 L 1.078125 -9.765625 L 4.234375 -9.765625 C 4.960938 -9.765625 5.582031 -9.632812 6.09375 -9.375 C 6.601562 -9.125 6.984375 -8.785156 7.234375 -8.359375 C 7.484375 -7.929688 7.609375 -7.441406 7.609375 -6.890625 C 7.609375 -6.210938 7.414062 -5.617188 7.03125 -5.109375 C 6.644531 -4.597656 6.066406 -4.257812 5.296875 -4.09375 L 7.734375 0 Z M 2.359375 -5.015625 L 4.234375 -5.015625 C 4.921875 -5.015625 5.4375 -5.179688 5.78125 -5.515625 C 6.125 -5.859375 6.296875 -6.316406 6.296875 -6.890625 C 6.296875 -7.460938 6.125 -7.90625 5.78125 -8.21875 C 5.445312 -8.539062 4.929688 -8.703125 4.234375 -8.703125 L 2.359375 -8.703125 Z M 2.359375 -5.015625 "/></g></g></g></svg>