<svg xmlns="http://www.w3.org/2000/svg" xmlns:xlink="http://www.w3.org/1999/xlink" width="500" zoomAndPan="magnify" viewBox="0 0 375 374.999991" height="500" preserveAspectRatio="xMidYMid meet" version="1.0"><defs><g/><clipPath id="id1"><path d="M 84 149.851562 L 133.949219 149.851562 L 133.949219 199 L 84 199 Z M 84 149.851562 " clip-rule="nonzero"/></clipPath><clipPath id="id2"><path d="M 58.199219 175 L 108 175 L 108 224.851562 L 58.199219 224.851562 Z M 58.199219 175 " clip-rule="nonzero"/></clipPath></defs><g clip-path="url(#id1)"><path fill="#67dcff" d="M 133.921875 187.421875 C 133.921875 193.65625 128.84375 198.703125 122.570312 198.703125 L 99.324219 198.703125 C 91.289062 198.703125 84.765625 192.21875 84.765625 184.234375 L 84.765625 161.128906 C 84.765625 154.894531 89.839844 149.851562 96.113281 149.851562 C 102.386719 149.851562 107.464844 154.894531 107.464844 161.128906 L 107.464844 176.144531 L 122.570312 176.144531 C 128.84375 176.144531 133.921875 181.210938 133.921875 187.421875 Z M 133.921875 187.421875 " fill-opacity="1" fill-rule="nonzero"/></g><g clip-path="url(#id2)"><path fill="#587dff" d="M 58.222656 187.277344 C 58.222656 181.042969 63.300781 175.996094 69.574219 175.996094 L 92.820312 175.996094 C 100.855469 175.996094 107.382812 182.480469 107.382812 190.46875 L 107.382812 213.570312 C 107.382812 219.804688 102.304688 224.851562 96.03125 224.851562 C 89.757812 224.851562 84.679688 219.804688 84.679688 213.570312 L 84.679688 198.558594 L 69.574219 198.558594 C 63.300781 198.558594 58.222656 193.511719 58.222656 187.277344 Z M 58.222656 187.277344 " fill-opacity="1" fill-rule="nonzero"/></g><path fill="#2720ff" d="M 107.382812 190.46875 L 107.382812 198.703125 L 99.324219 198.703125 C 91.289062 198.703125 84.765625 192.21875 84.765625 184.234375 L 84.765625 175.996094 L 92.820312 175.996094 C 100.855469 175.996094 107.382812 182.480469 107.382812 190.46875 Z M 107.382812 190.46875 " fill-opacity="1" fill-rule="nonzero"/><g fill="#2720ff" fill-opacity="1"><g transform="translate(146.021186, 182.249988)"><g><path d="M 2.34375 -17.640625 L 7.203125 -17.640625 L 7.203125 -15.125 L 7.375 -15.125 C 7.738281 -15.644531 8.195312 -16.125 8.75 -16.5625 C 9.226562 -16.914062 9.804688 -17.242188 10.484375 -17.546875 C 11.171875 -17.847656 11.992188 -18 12.953125 -18 C 13.992188 -18 14.992188 -17.769531 15.953125 -17.3125 C 16.910156 -16.851562 17.753906 -16.222656 18.484375 -15.421875 C 19.210938 -14.617188 19.789062 -13.65625 20.21875 -12.53125 C 20.65625 -11.40625 20.875 -10.164062 20.875 -8.8125 C 20.875 -7.46875 20.65625 -6.234375 20.21875 -5.109375 C 19.789062 -3.984375 19.210938 -3.007812 18.484375 -2.1875 C 17.753906 -1.375 16.910156 -0.742188 15.953125 -0.296875 C 14.992188 0.140625 13.992188 0.359375 12.953125 0.359375 C 11.992188 0.359375 11.171875 0.207031 10.484375 -0.09375 C 9.804688 -0.394531 9.226562 -0.722656 8.75 -1.078125 C 8.195312 -1.515625 7.738281 -1.992188 7.375 -2.515625 L 7.203125 -2.515625 L 7.203125 7.5625 L 2.34375 7.5625 Z M 11.515625 -4.140625 C 12.140625 -4.140625 12.726562 -4.257812 13.28125 -4.5 C 13.832031 -4.738281 14.3125 -5.0625 14.71875 -5.46875 C 15.132812 -5.875 15.453125 -6.363281 15.671875 -6.9375 C 15.898438 -7.519531 16.015625 -8.144531 16.015625 -8.8125 C 16.015625 -9.488281 15.898438 -10.113281 15.671875 -10.6875 C 15.453125 -11.269531 15.132812 -11.765625 14.71875 -12.171875 C 14.3125 -12.578125 13.832031 -12.898438 13.28125 -13.140625 C 12.726562 -13.378906 12.140625 -13.5 11.515625 -13.5 C 10.890625 -13.5 10.300781 -13.378906 9.75 -13.140625 C 9.195312 -12.898438 8.71875 -12.578125 8.3125 -12.171875 C 7.90625 -11.765625 7.585938 -11.269531 7.359375 -10.6875 C 7.128906 -10.113281 7.015625 -9.488281 7.015625 -8.8125 C 7.015625 -8.144531 7.128906 -7.519531 7.359375 -6.9375 C 7.585938 -6.363281 7.90625 -5.875 8.3125 -5.46875 C 8.71875 -5.0625 9.195312 -4.738281 9.75 -4.5 C 10.300781 -4.257812 10.890625 -4.140625 11.515625 -4.140625 Z M 11.515625 -4.140625 "/></g></g></g><g fill="#2720ff" fill-opacity="1"><g transform="translate(167.441234, 182.249988)"><g><path d="M 2.515625 -25.203125 L 7.375 -25.203125 L 7.375 0 L 2.515625 0 Z M 2.515625 -25.203125 "/></g></g></g><g fill="#2720ff" fill-opacity="1"><g transform="translate(176.621255, 182.249988)"><g><path d="M 8.8125 0.359375 C 7.90625 0.359375 7.0625 0.1875 6.28125 -0.15625 C 5.5 -0.507812 4.8125 -1.003906 4.21875 -1.640625 C 3.632812 -2.273438 3.175781 -3.046875 2.84375 -3.953125 C 2.507812 -4.867188 2.34375 -5.890625 2.34375 -7.015625 L 2.34375 -17.640625 L 7.203125 -17.640625 L 7.203125 -7.734375 C 7.203125 -6.660156 7.488281 -5.820312 8.0625 -5.21875 C 8.632812 -4.613281 9.425781 -4.3125 10.4375 -4.3125 C 11.519531 -4.3125 12.421875 -4.675781 13.140625 -5.40625 C 13.859375 -6.144531 14.21875 -7.101562 14.21875 -8.28125 L 14.21875 -17.640625 L 19.078125 -17.640625 L 19.078125 0 L 14.21875 0 L 14.21875 -2.515625 L 14.046875 -2.515625 C 13.660156 -1.992188 13.210938 -1.515625 12.703125 -1.078125 C 12.273438 -0.722656 11.726562 -0.394531 11.0625 -0.09375 C 10.40625 0.207031 9.65625 0.359375 8.8125 0.359375 Z M 8.8125 0.359375 "/></g></g></g><g fill="#2720ff" fill-opacity="1"><g transform="translate(197.321299, 182.249988)"><g><path d="M 8.09375 0.359375 C 6.875 0.359375 5.796875 0.191406 4.859375 -0.140625 C 3.921875 -0.472656 3.128906 -0.847656 2.484375 -1.265625 C 1.710938 -1.710938 1.066406 -2.25 0.546875 -2.875 L 3.421875 -5.9375 C 3.773438 -5.550781 4.195312 -5.21875 4.6875 -4.9375 C 5.09375 -4.664062 5.582031 -4.429688 6.15625 -4.234375 C 6.726562 -4.046875 7.375 -3.953125 8.09375 -3.953125 C 8.914062 -3.953125 9.484375 -4.070312 9.796875 -4.3125 C 10.109375 -4.5625 10.265625 -4.863281 10.265625 -5.21875 C 10.265625 -5.550781 10.039062 -5.832031 9.59375 -6.0625 C 9.144531 -6.289062 8.582031 -6.515625 7.90625 -6.734375 C 7.238281 -6.953125 6.519531 -7.203125 5.75 -7.484375 C 4.988281 -7.773438 4.269531 -8.132812 3.59375 -8.5625 C 2.925781 -9 2.367188 -9.539062 1.921875 -10.1875 C 1.484375 -10.832031 1.265625 -11.632812 1.265625 -12.59375 C 1.265625 -13.320312 1.421875 -14.007812 1.734375 -14.65625 C 2.046875 -15.300781 2.492188 -15.875 3.078125 -16.375 C 3.660156 -16.882812 4.390625 -17.28125 5.265625 -17.5625 C 6.148438 -17.851562 7.15625 -18 8.28125 -18 C 9.40625 -18 10.394531 -17.851562 11.25 -17.5625 C 12.101562 -17.28125 12.816406 -16.96875 13.390625 -16.625 C 14.066406 -16.21875 14.644531 -15.773438 15.125 -15.296875 L 12.234375 -12.234375 C 11.953125 -12.503906 11.609375 -12.742188 11.203125 -12.953125 C 10.859375 -13.148438 10.441406 -13.320312 9.953125 -13.46875 C 9.460938 -13.613281 8.90625 -13.6875 8.28125 -13.6875 C 7.65625 -13.6875 7.195312 -13.570312 6.90625 -13.34375 C 6.625 -13.113281 6.484375 -12.863281 6.484375 -12.59375 C 6.484375 -12.257812 6.703125 -11.976562 7.140625 -11.75 C 7.585938 -11.519531 8.144531 -11.296875 8.8125 -11.078125 C 9.488281 -10.867188 10.207031 -10.617188 10.96875 -10.328125 C 11.738281 -10.046875 12.457031 -9.6875 13.125 -9.25 C 13.800781 -8.820312 14.363281 -8.28125 14.8125 -7.625 C 15.257812 -6.976562 15.484375 -6.175781 15.484375 -5.21875 C 15.484375 -4.445312 15.328125 -3.722656 15.015625 -3.046875 C 14.703125 -2.378906 14.234375 -1.796875 13.609375 -1.296875 C 12.984375 -0.796875 12.210938 -0.394531 11.296875 -0.09375 C 10.390625 0.207031 9.320312 0.359375 8.09375 0.359375 Z M 8.09375 0.359375 "/></g></g></g><g fill="#2720ff" fill-opacity="1"><g transform="translate(212.98133, 182.249988)"><g><path d="M 2.34375 -17.640625 L 7.203125 -17.640625 L 7.203125 -15.125 L 7.375 -15.125 C 7.738281 -15.644531 8.195312 -16.125 8.75 -16.5625 C 9.226562 -16.914062 9.804688 -17.242188 10.484375 -17.546875 C 11.171875 -17.847656 11.992188 -18 12.953125 -18 C 13.992188 -18 14.992188 -17.769531 15.953125 -17.3125 C 16.910156 -16.851562 17.753906 -16.222656 18.484375 -15.421875 C 19.210938 -14.617188 19.789062 -13.65625 20.21875 -12.53125 C 20.65625 -11.40625 20.875 -10.164062 20.875 -8.8125 C 20.875 -7.46875 20.65625 -6.234375 20.21875 -5.109375 C 19.789062 -3.984375 19.210938 -3.007812 18.484375 -2.1875 C 17.753906 -1.375 16.910156 -0.742188 15.953125 -0.296875 C 14.992188 0.140625 13.992188 0.359375 12.953125 0.359375 C 11.992188 0.359375 11.171875 0.207031 10.484375 -0.09375 C 9.804688 -0.394531 9.226562 -0.722656 8.75 -1.078125 C 8.195312 -1.515625 7.738281 -1.992188 7.375 -2.515625 L 7.203125 -2.515625 L 7.203125 7.5625 L 2.34375 7.5625 Z M 11.515625 -4.140625 C 12.140625 -4.140625 12.726562 -4.257812 13.28125 -4.5 C 13.832031 -4.738281 14.3125 -5.0625 14.71875 -5.46875 C 15.132812 -5.875 15.453125 -6.363281 15.671875 -6.9375 C 15.898438 -7.519531 16.015625 -8.144531 16.015625 -8.8125 C 16.015625 -9.488281 15.898438 -10.113281 15.671875 -10.6875 C 15.453125 -11.269531 15.132812 -11.765625 14.71875 -12.171875 C 14.3125 -12.578125 13.832031 -12.898438 13.28125 -13.140625 C 12.726562 -13.378906 12.140625 -13.5 11.515625 -13.5 C 10.890625 -13.5 10.300781 -13.378906 9.75 -13.140625 C 9.195312 -12.898438 8.71875 -12.578125 8.3125 -12.171875 C 7.90625 -11.765625 7.585938 -11.269531 7.359375 -10.6875 C 7.128906 -10.113281 7.015625 -9.488281 7.015625 -8.8125 C 7.015625 -8.144531 7.128906 -7.519531 7.359375 -6.9375 C 7.585938 -6.363281 7.90625 -5.875 8.3125 -5.46875 C 8.71875 -5.0625 9.195312 -4.738281 9.75 -4.5 C 10.300781 -4.257812 10.890625 -4.140625 11.515625 -4.140625 Z M 11.515625 -4.140625 "/></g></g></g><g fill="#2720ff" fill-opacity="1"><g transform="translate(234.401378, 182.249988)"><g><path d="M 2.515625 -25.203125 L 7.375 -25.203125 L 7.375 0 L 2.515625 0 Z M 2.515625 -25.203125 "/></g></g></g><g fill="#2720ff" fill-opacity="1"><g transform="translate(243.581399, 182.249988)"><g><path d="M 8.8125 0.359375 C 7.90625 0.359375 7.0625 0.1875 6.28125 -0.15625 C 5.5 -0.507812 4.8125 -1.003906 4.21875 -1.640625 C 3.632812 -2.273438 3.175781 -3.046875 2.84375 -3.953125 C 2.507812 -4.867188 2.34375 -5.890625 2.34375 -7.015625 L 2.34375 -17.640625 L 7.203125 -17.640625 L 7.203125 -7.734375 C 7.203125 -6.660156 7.488281 -5.820312 8.0625 -5.21875 C 8.632812 -4.613281 9.425781 -4.3125 10.4375 -4.3125 C 11.519531 -4.3125 12.421875 -4.675781 13.140625 -5.40625 C 13.859375 -6.144531 14.21875 -7.101562 14.21875 -8.28125 L 14.21875 -17.640625 L 19.078125 -17.640625 L 19.078125 0 L 14.21875 0 L 14.21875 -2.515625 L 14.046875 -2.515625 C 13.660156 -1.992188 13.210938 -1.515625 12.703125 -1.078125 C 12.273438 -0.722656 11.726562 -0.394531 11.0625 -0.09375 C 10.40625 0.207031 9.65625 0.359375 8.8125 0.359375 Z M 8.8125 0.359375 "/></g></g></g><g fill="#2720ff" fill-opacity="1"><g transform="translate(264.281447, 182.249988)"><g><path d="M 8.09375 0.359375 C 6.875 0.359375 5.796875 0.191406 4.859375 -0.140625 C 3.921875 -0.472656 3.128906 -0.847656 2.484375 -1.265625 C 1.710938 -1.710938 1.066406 -2.25 0.546875 -2.875 L 3.421875 -5.9375 C 3.773438 -5.550781 4.195312 -5.21875 4.6875 -4.9375 C 5.09375 -4.664062 5.582031 -4.429688 6.15625 -4.234375 C 6.726562 -4.046875 7.375 -3.953125 8.09375 -3.953125 C 8.914062 -3.953125 9.484375 -4.070312 9.796875 -4.3125 C 10.109375 -4.5625 10.265625 -4.863281 10.265625 -5.21875 C 10.265625 -5.550781 10.039062 -5.832031 9.59375 -6.0625 C 9.144531 -6.289062 8.582031 -6.515625 7.90625 -6.734375 C 7.238281 -6.953125 6.519531 -7.203125 5.75 -7.484375 C 4.988281 -7.773438 4.269531 -8.132812 3.59375 -8.5625 C 2.925781 -9 2.367188 -9.539062 1.921875 -10.1875 C 1.484375 -10.832031 1.265625 -11.632812 1.265625 -12.59375 C 1.265625 -13.320312 1.421875 -14.007812 1.734375 -14.65625 C 2.046875 -15.300781 2.492188 -15.875 3.078125 -16.375 C 3.660156 -16.882812 4.390625 -17.28125 5.265625 -17.5625 C 6.148438 -17.851562 7.15625 -18 8.28125 -18 C 9.40625 -18 10.394531 -17.851562 11.25 -17.5625 C 12.101562 -17.28125 12.816406 -16.96875 13.390625 -16.625 C 14.066406 -16.21875 14.644531 -15.773438 15.125 -15.296875 L 12.234375 -12.234375 C 11.953125 -12.503906 11.609375 -12.742188 11.203125 -12.953125 C 10.859375 -13.148438 10.441406 -13.320312 9.953125 -13.46875 C 9.460938 -13.613281 8.90625 -13.6875 8.28125 -13.6875 C 7.65625 -13.6875 7.195312 -13.570312 6.90625 -13.34375 C 6.625 -13.113281 6.484375 -12.863281 6.484375 -12.59375 C 6.484375 -12.257812 6.703125 -11.976562 7.140625 -11.75 C 7.585938 -11.519531 8.144531 -11.296875 8.8125 -11.078125 C 9.488281 -10.867188 10.207031 -10.617188 10.96875 -10.328125 C 11.738281 -10.046875 12.457031 -9.6875 13.125 -9.25 C 13.800781 -8.820312 14.363281 -8.28125 14.8125 -7.625 C 15.257812 -6.976562 15.484375 -6.175781 15.484375 -5.21875 C 15.484375 -4.445312 15.328125 -3.722656 15.015625 -3.046875 C 14.703125 -2.378906 14.234375 -1.796875 13.609375 -1.296875 C 12.984375 -0.796875 12.210938 -0.394531 11.296875 -0.09375 C 10.390625 0.207031 9.320312 0.359375 8.09375 0.359375 Z M 8.09375 0.359375 "/></g></g></g><g fill="#2720ff" fill-opacity="1"><g transform="translate(146.021186, 214.499986)"><g><path d="M 2.34375 -17.640625 L 7.203125 -17.640625 L 7.203125 -15.125 L 7.375 -15.125 C 7.738281 -15.644531 8.195312 -16.125 8.75 -16.5625 C 9.226562 -16.914062 9.804688 -17.242188 10.484375 -17.546875 C 11.171875 -17.847656 11.992188 -18 12.953125 -18 C 13.992188 -18 14.992188 -17.769531 15.953125 -17.3125 C 16.910156 -16.851562 17.753906 -16.222656 18.484375 -15.421875 C 19.210938 -14.617188 19.789062 -13.65625 20.21875 -12.53125 C 20.65625 -11.40625 20.875 -10.164062 20.875 -8.8125 C 20.875 -7.46875 20.65625 -6.234375 20.21875 -5.109375 C 19.789062 -3.984375 19.210938 -3.007812 18.484375 -2.1875 C 17.753906 -1.375 16.910156 -0.742188 15.953125 -0.296875 C 14.992188 0.140625 13.992188 0.359375 12.953125 0.359375 C 11.992188 0.359375 11.171875 0.207031 10.484375 -0.09375 C 9.804688 -0.394531 9.226562 -0.722656 8.75 -1.078125 C 8.195312 -1.515625 7.738281 -1.992188 7.375 -2.515625 L 7.203125 -2.515625 L 7.203125 7.5625 L 2.34375 7.5625 Z M 11.515625 -4.140625 C 12.140625 -4.140625 12.726562 -4.257812 13.28125 -4.5 C 13.832031 -4.738281 14.3125 -5.0625 14.71875 -5.46875 C 15.132812 -5.875 15.453125 -6.363281 15.671875 -6.9375 C 15.898438 -7.519531 16.015625 -8.144531 16.015625 -8.8125 C 16.015625 -9.488281 15.898438 -10.113281 15.671875 -10.6875 C 15.453125 -11.269531 15.132812 -11.765625 14.71875 -12.171875 C 14.3125 -12.578125 13.832031 -12.898438 13.28125 -13.140625 C 12.726562 -13.378906 12.140625 -13.5 11.515625 -13.5 C 10.890625 -13.5 10.300781 -13.378906 9.75 -13.140625 C 9.195312 -12.898438 8.71875 -12.578125 8.3125 -12.171875 C 7.90625 -11.765625 7.585938 -11.269531 7.359375 -10.6875 C 7.128906 -10.113281 7.015625 -9.488281 7.015625 -8.8125 C 7.015625 -8.144531 7.128906 -7.519531 7.359375 -6.9375 C 7.585938 -6.363281 7.90625 -5.875 8.3125 -5.46875 C 8.71875 -5.0625 9.195312 -4.738281 9.75 -4.5 C 10.300781 -4.257812 10.890625 -4.140625 11.515625 -4.140625 Z M 11.515625 -4.140625 "/></g></g></g><g fill="#2720ff" fill-opacity="1"><g transform="translate(167.441234, 214.499986)"><g><path d="M 2.515625 -25.203125 L 7.375 -25.203125 L 7.375 -15.125 L 7.5625 -15.125 C 7.945312 -15.644531 8.390625 -16.125 8.890625 -16.5625 C 9.328125 -16.914062 9.867188 -17.242188 10.515625 -17.546875 C 11.160156 -17.847656 11.914062 -18 12.78125 -18 C 13.664062 -18 14.503906 -17.820312 15.296875 -17.46875 C 16.085938 -17.125 16.773438 -16.632812 17.359375 -16 C 17.953125 -15.363281 18.414062 -14.585938 18.75 -13.671875 C 19.09375 -12.765625 19.265625 -11.75 19.265625 -10.625 L 19.265625 0 L 14.40625 0 L 14.40625 -9.90625 C 14.40625 -10.976562 14.113281 -11.8125 13.53125 -12.40625 C 12.957031 -13.007812 12.164062 -13.3125 11.15625 -13.3125 C 10.082031 -13.3125 9.179688 -12.945312 8.453125 -12.21875 C 7.734375 -11.488281 7.375 -10.535156 7.375 -9.359375 L 7.375 0 L 2.515625 0 Z M 2.515625 -25.203125 "/></g></g></g><g fill="#2720ff" fill-opacity="1"><g transform="translate(188.321282, 214.499986)"><g><path d="M 6.84375 0.359375 C 6.019531 0.359375 5.28125 0.234375 4.625 -0.015625 C 3.96875 -0.265625 3.40625 -0.617188 2.9375 -1.078125 C 2.46875 -1.535156 2.097656 -2.066406 1.828125 -2.671875 C 1.566406 -3.285156 1.4375 -3.957031 1.4375 -4.6875 C 1.4375 -6.125 1.898438 -7.351562 2.828125 -8.375 C 3.753906 -9.394531 5.03125 -10.046875 6.65625 -10.328125 L 12.234375 -11.34375 C 12.140625 -11.96875 11.832031 -12.515625 11.3125 -12.984375 C 10.800781 -13.453125 10.09375 -13.6875 9.1875 -13.6875 C 8.5625 -13.6875 8 -13.582031 7.5 -13.375 C 7.007812 -13.164062 6.597656 -12.929688 6.265625 -12.671875 C 5.859375 -12.378906 5.507812 -12.054688 5.21875 -11.703125 L 2.34375 -14.578125 C 2.84375 -15.203125 3.453125 -15.765625 4.171875 -16.265625 C 4.796875 -16.703125 5.550781 -17.097656 6.4375 -17.453125 C 7.332031 -17.816406 8.367188 -18 9.546875 -18 C 10.671875 -18 11.691406 -17.816406 12.609375 -17.453125 C 13.535156 -17.097656 14.332031 -16.601562 15 -15.96875 C 15.675781 -15.332031 16.191406 -14.585938 16.546875 -13.734375 C 16.910156 -12.878906 17.09375 -11.960938 17.09375 -10.984375 L 17.09375 0 L 12.234375 0 L 12.234375 -2.15625 L 12.0625 -2.15625 C 11.675781 -1.675781 11.234375 -1.257812 10.734375 -0.90625 C 10.296875 -0.5625 9.742188 -0.265625 9.078125 -0.015625 C 8.421875 0.234375 7.675781 0.359375 6.84375 0.359375 Z M 8.453125 -3.59375 C 9.535156 -3.59375 10.4375 -3.957031 11.15625 -4.6875 C 11.875 -5.425781 12.234375 -6.382812 12.234375 -7.5625 L 12.234375 -7.921875 L 8.28125 -7.203125 C 7.65625 -7.078125 7.164062 -6.859375 6.8125 -6.546875 C 6.46875 -6.234375 6.296875 -5.851562 6.296875 -5.40625 C 6.296875 -4.851562 6.472656 -4.410156 6.828125 -4.078125 C 7.191406 -3.753906 7.734375 -3.59375 8.453125 -3.59375 Z M 8.453125 -3.59375 "/></g></g></g><g fill="#2720ff" fill-opacity="1"><g transform="translate(207.041325, 214.499986)"><g><path d="M 2.34375 -17.640625 L 7.203125 -17.640625 L 7.203125 -15.125 L 7.375 -15.125 C 7.757812 -15.644531 8.207031 -16.125 8.71875 -16.5625 C 9.144531 -16.914062 9.679688 -17.242188 10.328125 -17.546875 C 10.972656 -17.847656 11.726562 -18 12.59375 -18 L 12.953125 -18 L 12.953125 -12.78125 C 12.835938 -12.800781 12.707031 -12.828125 12.5625 -12.859375 C 12.414062 -12.878906 12.238281 -12.898438 12.03125 -12.921875 C 11.832031 -12.941406 11.601562 -12.953125 11.34375 -12.953125 C 10.164062 -12.953125 9.179688 -12.53125 8.390625 -11.6875 C 7.597656 -10.851562 7.203125 -9.71875 7.203125 -8.28125 L 7.203125 0 L 2.34375 0 Z M 2.34375 -17.640625 "/></g></g></g><g fill="#2720ff" fill-opacity="1"><g transform="translate(220.001352, 214.499986)"><g><path d="M 2.34375 -17.640625 L 7.203125 -17.640625 L 7.203125 -15.125 L 7.375 -15.125 C 7.6875 -15.644531 8.070312 -16.125 8.53125 -16.5625 C 8.9375 -16.914062 9.4375 -17.242188 10.03125 -17.546875 C 10.632812 -17.847656 11.367188 -18 12.234375 -18 C 13.171875 -18 13.972656 -17.835938 14.640625 -17.515625 C 15.316406 -17.191406 15.859375 -16.835938 16.265625 -16.453125 C 16.742188 -16.015625 17.140625 -15.507812 17.453125 -14.9375 L 17.640625 -14.9375 C 18.046875 -15.507812 18.535156 -16.015625 19.109375 -16.453125 C 19.597656 -16.835938 20.191406 -17.191406 20.890625 -17.515625 C 21.597656 -17.835938 22.4375 -18 23.40625 -18 C 24.269531 -18 25.070312 -17.835938 25.8125 -17.515625 C 26.550781 -17.191406 27.195312 -16.722656 27.75 -16.109375 C 28.300781 -15.492188 28.734375 -14.753906 29.046875 -13.890625 C 29.359375 -13.023438 29.515625 -12.054688 29.515625 -10.984375 L 29.515625 0 L 24.65625 0 L 24.65625 -10.265625 C 24.65625 -11.265625 24.398438 -12.019531 23.890625 -12.53125 C 23.390625 -13.050781 22.6875 -13.3125 21.78125 -13.3125 C 20.769531 -13.3125 19.945312 -12.984375 19.3125 -12.328125 C 18.675781 -11.671875 18.359375 -10.800781 18.359375 -9.71875 L 18.359375 0 L 13.5 0 L 13.5 -10.265625 C 13.5 -11.265625 13.242188 -12.019531 12.734375 -12.53125 C 12.234375 -13.050781 11.53125 -13.3125 10.625 -13.3125 C 9.613281 -13.3125 8.789062 -12.984375 8.15625 -12.328125 C 7.519531 -11.671875 7.203125 -10.800781 7.203125 -9.71875 L 7.203125 0 L 2.34375 0 Z M 2.34375 -17.640625 "/></g></g></g><g fill="#2720ff" fill-opacity="1"><g transform="translate(251.141411, 214.499986)"><g><path d="M 6.84375 0.359375 C 6.019531 0.359375 5.28125 0.234375 4.625 -0.015625 C 3.96875 -0.265625 3.40625 -0.617188 2.9375 -1.078125 C 2.46875 -1.535156 2.097656 -2.066406 1.828125 -2.671875 C 1.566406 -3.285156 1.4375 -3.957031 1.4375 -4.6875 C 1.4375 -6.125 1.898438 -7.351562 2.828125 -8.375 C 3.753906 -9.394531 5.03125 -10.046875 6.65625 -10.328125 L 12.234375 -11.34375 C 12.140625 -11.96875 11.832031 -12.515625 11.3125 -12.984375 C 10.800781 -13.453125 10.09375 -13.6875 9.1875 -13.6875 C 8.5625 -13.6875 8 -13.582031 7.5 -13.375 C 7.007812 -13.164062 6.597656 -12.929688 6.265625 -12.671875 C 5.859375 -12.378906 5.507812 -12.054688 5.21875 -11.703125 L 2.34375 -14.578125 C 2.84375 -15.203125 3.453125 -15.765625 4.171875 -16.265625 C 4.796875 -16.703125 5.550781 -17.097656 6.4375 -17.453125 C 7.332031 -17.816406 8.367188 -18 9.546875 -18 C 10.671875 -18 11.691406 -17.816406 12.609375 -17.453125 C 13.535156 -17.097656 14.332031 -16.601562 15 -15.96875 C 15.675781 -15.332031 16.191406 -14.585938 16.546875 -13.734375 C 16.910156 -12.878906 17.09375 -11.960938 17.09375 -10.984375 L 17.09375 0 L 12.234375 0 L 12.234375 -2.15625 L 12.0625 -2.15625 C 11.675781 -1.675781 11.234375 -1.257812 10.734375 -0.90625 C 10.296875 -0.5625 9.742188 -0.265625 9.078125 -0.015625 C 8.421875 0.234375 7.675781 0.359375 6.84375 0.359375 Z M 8.453125 -3.59375 C 9.535156 -3.59375 10.4375 -3.957031 11.15625 -4.6875 C 11.875 -5.425781 12.234375 -6.382812 12.234375 -7.5625 L 12.234375 -7.921875 L 8.28125 -7.203125 C 7.65625 -7.078125 7.164062 -6.859375 6.8125 -6.546875 C 6.46875 -6.234375 6.296875 -5.851562 6.296875 -5.40625 C 6.296875 -4.851562 6.472656 -4.410156 6.828125 -4.078125 C 7.191406 -3.753906 7.734375 -3.59375 8.453125 -3.59375 Z M 8.453125 -3.59375 "/></g></g></g><g fill="#2720ff" fill-opacity="1"><g transform="translate(269.861449, 214.499986)"><g><path d="M 10.625 0.359375 C 9.320312 0.359375 8.097656 0.117188 6.953125 -0.359375 C 5.816406 -0.835938 4.820312 -1.492188 3.96875 -2.328125 C 3.125 -3.171875 2.460938 -4.144531 1.984375 -5.25 C 1.503906 -6.351562 1.265625 -7.539062 1.265625 -8.8125 C 1.265625 -10.0625 1.503906 -11.242188 1.984375 -12.359375 C 2.460938 -13.484375 3.125 -14.460938 3.96875 -15.296875 C 4.820312 -16.140625 5.816406 -16.800781 6.953125 -17.28125 C 8.097656 -17.757812 9.320312 -18 10.625 -18 C 11.894531 -18 12.984375 -17.8125 13.890625 -17.4375 C 14.804688 -17.070312 15.578125 -16.660156 16.203125 -16.203125 C 16.921875 -15.671875 17.519531 -15.070312 18 -14.40625 L 14.9375 -11.34375 C 14.601562 -11.75 14.21875 -12.109375 13.78125 -12.421875 C 13.40625 -12.679688 12.953125 -12.925781 12.421875 -13.15625 C 11.890625 -13.382812 11.289062 -13.5 10.625 -13.5 C 10 -13.5 9.410156 -13.378906 8.859375 -13.140625 C 8.304688 -12.898438 7.820312 -12.578125 7.40625 -12.171875 C 7 -11.765625 6.679688 -11.269531 6.453125 -10.6875 C 6.234375 -10.113281 6.125 -9.488281 6.125 -8.8125 C 6.125 -8.144531 6.234375 -7.519531 6.453125 -6.9375 C 6.679688 -6.363281 7 -5.875 7.40625 -5.46875 C 7.820312 -5.0625 8.304688 -4.738281 8.859375 -4.5 C 9.410156 -4.257812 10 -4.140625 10.625 -4.140625 C 11.289062 -4.140625 11.890625 -4.253906 12.421875 -4.484375 C 12.953125 -4.710938 13.40625 -4.957031 13.78125 -5.21875 C 14.21875 -5.53125 14.601562 -5.890625 14.9375 -6.296875 L 18 -3.234375 C 17.519531 -2.566406 16.921875 -1.96875 16.203125 -1.4375 C 15.578125 -0.976562 14.804688 -0.5625 13.890625 -0.1875 C 12.984375 0.175781 11.894531 0.359375 10.625 0.359375 Z M 10.625 0.359375 "/></g></g></g><g fill="#2720ff" fill-opacity="1"><g transform="translate(287.861493, 214.499986)"><g><path d="M 4.5 7.5625 C 4.039062 7.5625 3.613281 7.535156 3.21875 7.484375 C 2.820312 7.441406 2.484375 7.382812 2.203125 7.3125 C 1.859375 7.207031 1.546875 7.109375 1.265625 7.015625 L 1.265625 2.515625 C 1.429688 2.585938 1.625 2.648438 1.84375 2.703125 C 2.25 2.816406 2.710938 2.875 3.234375 2.875 C 4.054688 2.875 4.707031 2.671875 5.1875 2.265625 C 5.664062 1.859375 6.035156 1.34375 6.296875 0.71875 L 6.65625 -0.1875 L -0.1875 -17.640625 L 5.046875 -17.640625 L 9.1875 -5.9375 L 9.359375 -5.9375 L 13.3125 -17.640625 L 18.546875 -17.640625 L 11.34375 1.4375 C 10.59375 3.425781 9.671875 4.941406 8.578125 5.984375 C 7.492188 7.035156 6.132812 7.5625 4.5 7.5625 Z M 4.5 7.5625 "/></g></g></g></svg>