<svg xmlns="http://www.w3.org/2000/svg" xmlns:xlink="http://www.w3.org/1999/xlink" width="500" zoomAndPan="magnify" viewBox="0 0 375 374.999991" height="500" preserveAspectRatio="xMidYMid meet" version="1.0"><defs><filter x="0%" y="0%" width="100%" height="100%" id="id1"><feColorMatrix values="0 0 0 0 1 0 0 0 0 1 0 0 0 0 1 0 0 0 1 0" color-interpolation-filters="sRGB"/></filter><g/><clipPath id="id2"><path d="M 128.652344 94.253906 L 253.644531 94.253906 L 253.644531 204 L 128.652344 204 Z M 128.652344 94.253906 " clip-rule="nonzero"/></clipPath><mask id="id3"><g filter="url(#id1)"><rect x="-37.5" width="450" fill="#000000" y="-37.499999" height="449.999989" fill-opacity="0.8196"/></g></mask><clipPath id="id4"><path d="M 0.410156 0.640625 L 99.886719 0.640625 L 99.886719 87.980469 L 0.410156 87.980469 Z M 0.410156 0.640625 " clip-rule="nonzero"/></clipPath><clipPath id="id5"><rect x="0" width="100" y="0" height="89"/></clipPath><clipPath id="id6"><path d="M 123 129 L 204.863281 129 L 204.863281 216 L 123 216 Z M 123 129 " clip-rule="nonzero"/></clipPath></defs><g clip-path="url(#id2)"><path fill="#64ebb6" d="M 128.652344 126.632812 C 128.652344 161.488281 191.148438 204 191.148438 204 C 191.148438 204 253.371094 161.1875 253.644531 126.632812 C 253.644531 108.792969 239.121094 94.253906 221.296875 94.253906 C 207.597656 94.253906 195.800781 103.039062 191.148438 115.097656 C 186.5 103.039062 174.699219 94.253906 161 94.253906 C 143.175781 94.253906 128.652344 108.792969 128.652344 126.632812 " fill-opacity="1" fill-rule="nonzero"/></g><g mask="url(#id3)"><g transform="matrix(1, 0, 0, 1, 141, 116)"><g clip-path="url(#id5)"><g clip-path="url(#id4)"><path fill="#1b9ce4" d="M 0.414062 26.40625 C 0.414062 54.144531 50.148438 87.980469 50.148438 87.980469 C 50.148438 87.980469 99.667969 53.90625 99.886719 26.40625 C 99.886719 12.207031 88.328125 0.640625 74.140625 0.640625 C 63.238281 0.640625 53.851562 7.628906 50.148438 17.226562 C 46.449219 7.628906 37.058594 0.640625 26.15625 0.640625 C 11.972656 0.640625 0.414062 12.207031 0.414062 26.40625 " fill-opacity="1" fill-rule="nonzero"/></g></g></g></g><g clip-path="url(#id6)"><path fill="#ffffff" d="M 178.683594 210.507812 L 178.683594 190.398438 C 178.683594 187.722656 180.847656 185.554688 183.523438 185.554688 L 200.023438 185.554688 C 202.695312 185.554688 204.863281 183.382812 204.863281 180.707031 L 204.863281 160.996094 C 204.863281 158.320312 202.695312 156.148438 200.023438 156.148438 C 200.023438 156.148438 198.191406 156.148438 195.746094 156.148438 C 193.300781 156.148438 190.246094 156.148438 187.800781 156.148438 C 185.191406 155.722656 181.523438 155.722656 180.296875 154.5 C 175.40625 147.15625 185.191406 128.796875 170.011719 129.429688 C 167.820312 129.417969 165.085938 129.414062 162.898438 129.414062 C 160.707031 129.414062 159.066406 129.414062 159.066406 129.414062 C 156.394531 129.414062 154.226562 131.582031 154.226562 134.257812 L 154.226562 151.304688 C 154.226562 152.644531 153.683594 153.855469 152.808594 154.730469 C 151.933594 155.609375 150.722656 156.152344 149.386719 156.175781 C 141.167969 159.394531 121.605469 152.050781 123.796875 166.148438 C 123.796875 169.027344 123.796875 172.675781 123.796875 175.597656 C 123.796875 178.519531 123.796875 180.707031 123.796875 180.707031 C 123.796875 183.382812 125.960938 185.554688 128.636719 185.554688 C 128.636719 185.554688 137.859375 185.554688 144.003906 185.554688 C 145.542969 185.554688 146.886719 185.554688 147.847656 185.554688 C 149.730469 185.09375 152.175781 186.320312 153.398438 187.542969 C 158.289062 197.335938 148.507812 219.363281 166.453125 215.355469 C 167.683594 215.355469 168.917969 215.355469 170.011719 215.355469 C 172.199219 215.355469 173.839844 215.355469 173.839844 215.355469 C 176.515625 215.355469 178.683594 213.183594 178.683594 210.507812 Z M 178.683594 210.507812 " fill-opacity="1" fill-rule="nonzero"/></g><path fill="#ffffff" d="M 200.386719 176.574219 C 200.78125 177.773438 200.589844 179.117188 199.828125 180.136719 C 199.039062 181.1875 197.746094 181.675781 196.507812 181.949219 C 195.019531 182.273438 193.46875 182.375 191.949219 182.492188 C 190.25 182.621094 188.546875 182.691406 186.839844 182.707031 C 184.898438 182.722656 182.960938 182.664062 181.023438 182.53125 C 180.25 182.480469 180.253906 183.679688 181.023438 183.730469 C 184.714844 183.980469 188.417969 183.96875 192.109375 183.679688 C 193.757812 183.550781 195.457031 183.441406 197.070312 183.050781 C 198.480469 182.707031 199.855469 182.058594 200.753906 180.882812 C 201.753906 179.585938 202.054688 177.808594 201.546875 176.253906 C 201.304688 175.523438 200.144531 175.835938 200.386719 176.574219 Z M 200.386719 176.574219 " fill-opacity="1" fill-rule="nonzero"/><path fill="#ffffff" d="M 193.183594 179.3125 C 190.066406 179.773438 186.90625 179.894531 183.757812 179.703125 C 182.988281 179.65625 182.992188 180.855469 183.757812 180.902344 C 187.015625 181.101562 190.277344 180.949219 193.503906 180.472656 C 193.824219 180.425781 194.003906 180.019531 193.921875 179.734375 C 193.828125 179.390625 193.507812 179.265625 193.183594 179.3125 Z M 193.183594 179.3125 " fill-opacity="1" fill-rule="nonzero"/><path fill="#ffffff" d="M 156.785156 144.097656 C 156.179688 147.554688 157.105469 151.09375 156.375 154.527344 C 156.078125 155.90625 155.53125 157.265625 154.511719 158.265625 C 153.402344 159.355469 151.875 159.796875 150.375 160.007812 C 148.34375 160.296875 146.253906 160.304688 144.210938 160.222656 C 143.4375 160.191406 143.4375 161.390625 144.210938 161.421875 C 146.160156 161.503906 148.132812 161.476562 150.074219 161.25 C 151.734375 161.054688 153.414062 160.660156 154.765625 159.625 C 157.371094 157.628906 157.894531 154.101562 157.847656 151.027344 C 157.8125 148.828125 157.558594 146.601562 157.945312 144.417969 C 158.078125 143.660156 156.921875 143.335938 156.785156 144.097656 Z M 156.785156 144.097656 " fill-opacity="1" fill-rule="nonzero"/><path fill="#ffffff" d="M 158.640625 157.648438 C 159.058594 160.015625 156.929688 161.859375 154.890625 162.492188 C 152.304688 163.296875 149.554688 162.871094 146.898438 163.027344 C 146.128906 163.070312 146.125 164.273438 146.898438 164.226562 C 149.871094 164.054688 153.003906 164.570312 155.84375 163.425781 C 158.296875 162.441406 160.289062 160.109375 159.796875 157.328125 C 159.660156 156.566406 158.503906 156.890625 158.640625 157.648438 Z M 158.640625 157.648438 " fill-opacity="1" fill-rule="nonzero"/><g fill="#183e9f" fill-opacity="1"><g transform="translate(90.794926, 232.784121)"><g><path d="M 27.515625 -0.03125 L 22.78125 -0.03125 L 22.78125 -17.390625 C 22.78125 -17.722656 22.835938 -18.566406 22.953125 -19.921875 C 22.890625 -19.734375 22.804688 -19.46875 22.703125 -19.125 C 22.597656 -18.789062 22.5 -18.484375 22.40625 -18.203125 C 22.3125 -17.921875 22.21875 -17.648438 22.125 -17.390625 L 15.859375 0 L 13.265625 0 L 6.828125 -17.390625 C 6.734375 -17.648438 6.640625 -17.921875 6.546875 -18.203125 C 6.453125 -18.484375 6.351562 -18.789062 6.25 -19.125 C 6.144531 -19.46875 6.054688 -19.734375 5.984375 -19.921875 C 5.984375 -19.703125 6.007812 -19.300781 6.0625 -18.71875 C 6.125 -18.132812 6.15625 -17.691406 6.15625 -17.390625 L 6.15625 -0.03125 L 2.34375 -0.03125 L 2.34375 -23.484375 C 2.34375 -23.503906 2.300781 -23.675781 2.21875 -24 C 2.132812 -24.332031 2.050781 -24.671875 1.96875 -25.015625 C 1.894531 -25.367188 1.859375 -25.570312 1.859375 -25.625 L 8.578125 -25.625 L 14.03125 -10.921875 C 14.289062 -10.222656 14.628906 -8.8125 15.046875 -6.6875 C 15.097656 -6.851562 15.222656 -7.441406 15.421875 -8.453125 C 15.617188 -9.460938 15.8125 -10.238281 16 -10.78125 L 21.34375 -25.625 L 27.515625 -25.625 Z M 27.515625 -0.03125 "/></g></g></g><g fill="#183e9f" fill-opacity="1"><g transform="translate(120.118304, 232.784121)"><g><path d="M 16.3125 -10.296875 C 16.3125 -8.890625 15.71875 -8.1875 14.53125 -8.1875 L 5.359375 -8.1875 C 5.359375 -6.695312 5.753906 -5.363281 6.546875 -4.1875 C 7.335938 -3.007812 8.445312 -2.421875 9.875 -2.421875 C 10.59375 -2.421875 11.34375 -2.59375 12.125 -2.9375 C 12.90625 -3.289062 13.566406 -3.734375 14.109375 -4.265625 L 15.890625 -1.46875 C 15.171875 -0.863281 14.21875 -0.398438 13.03125 -0.078125 C 11.851562 0.234375 10.726562 0.390625 9.65625 0.390625 C 6.945312 0.390625 4.8125 -0.421875 3.25 -2.046875 C 1.6875 -3.671875 0.90625 -5.847656 0.90625 -8.578125 C 0.90625 -11.160156 1.632812 -13.359375 3.09375 -15.171875 C 4.550781 -16.984375 6.539062 -17.890625 9.0625 -17.890625 C 11.351562 -17.890625 13.132812 -17.195312 14.40625 -15.8125 C 15.675781 -14.4375 16.3125 -12.597656 16.3125 -10.296875 Z M 11.9375 -11.71875 C 11.9375 -12.675781 11.691406 -13.460938 11.203125 -14.078125 C 10.710938 -14.703125 10.007812 -15.015625 9.09375 -15.015625 C 8.164062 -15.015625 7.335938 -14.582031 6.609375 -13.71875 C 5.890625 -12.851562 5.503906 -11.929688 5.453125 -10.953125 L 11.34375 -10.953125 C 11.738281 -10.953125 11.9375 -11.207031 11.9375 -11.71875 Z M 11.9375 -11.71875 "/></g></g></g><g fill="#183e9f" fill-opacity="1"><g transform="translate(137.404397, 232.784121)"><g><path d="M 18.03125 -0.109375 L 13.796875 0.3125 C 13.609375 -0.195312 13.429688 -0.894531 13.265625 -1.78125 C 12.796875 -1.101562 12.097656 -0.566406 11.171875 -0.171875 C 10.253906 0.222656 9.34375 0.421875 8.4375 0.421875 C 6.082031 0.421875 4.25 -0.46875 2.9375 -2.25 C 1.632812 -4.039062 0.984375 -6.148438 0.984375 -8.578125 C 0.984375 -11.234375 1.6875 -13.4375 3.09375 -15.1875 C 4.507812 -16.9375 6.507812 -17.8125 9.09375 -17.8125 C 10.78125 -17.8125 12.078125 -17.4375 12.984375 -16.6875 C 12.960938 -17.320312 12.953125 -18.035156 12.953125 -18.828125 L 12.953125 -24.984375 L 12.421875 -26.875 L 17.15625 -26.875 L 17.15625 -4.96875 C 17.15625 -2.800781 17.445312 -1.179688 18.03125 -0.109375 Z M 12.953125 -4.515625 L 12.953125 -10.21875 C 12.953125 -11.550781 12.679688 -12.65625 12.140625 -13.53125 C 11.609375 -14.40625 10.722656 -14.84375 9.484375 -14.84375 C 8.523438 -14.84375 7.734375 -14.484375 7.109375 -13.765625 C 6.492188 -13.054688 6.082031 -12.273438 5.875 -11.421875 C 5.664062 -10.578125 5.5625 -9.6875 5.5625 -8.75 C 5.5625 -7.207031 5.890625 -5.8125 6.546875 -4.5625 C 7.203125 -3.3125 8.226562 -2.6875 9.625 -2.6875 C 10.25 -2.6875 10.867188 -2.851562 11.484375 -3.1875 C 12.109375 -3.53125 12.597656 -3.972656 12.953125 -4.515625 Z M 12.953125 -4.515625 "/></g></g></g><g fill="#183e9f" fill-opacity="1"><g transform="translate(156.929985, 232.784121)"><g><path d="M 6.46875 0 L 2.28125 0 L 2.28125 -15.5 C 2.28125 -15.53125 2.25 -15.679688 2.1875 -15.953125 C 2.125 -16.234375 2.054688 -16.535156 1.984375 -16.859375 C 1.921875 -17.191406 1.890625 -17.367188 1.890625 -17.390625 L 6.46875 -17.390625 Z M 6.265625 -25.65625 C 6.796875 -25.113281 7.0625 -24.46875 7.0625 -23.71875 C 7.0625 -22.976562 6.800781 -22.34375 6.28125 -21.8125 C 5.757812 -21.289062 5.125 -21.03125 4.375 -21.03125 C 3.625 -21.03125 2.988281 -21.289062 2.46875 -21.8125 C 1.945312 -22.34375 1.6875 -22.976562 1.6875 -23.71875 C 1.6875 -24.46875 1.945312 -25.109375 2.46875 -25.640625 C 2.988281 -26.179688 3.625 -26.453125 4.375 -26.453125 C 5.125 -26.453125 5.753906 -26.1875 6.265625 -25.65625 Z M 6.265625 -25.65625 "/></g></g></g><g fill="#183e9f" fill-opacity="1"><g transform="translate(165.713005, 232.784121)"><g><path d="M 15.46875 -1.21875 C 14.300781 -0.632812 13.285156 -0.21875 12.421875 0.03125 C 11.554688 0.289062 10.554688 0.421875 9.421875 0.421875 C 6.710938 0.421875 4.613281 -0.410156 3.125 -2.078125 C 1.644531 -3.742188 0.90625 -5.957031 0.90625 -8.71875 C 0.90625 -11.445312 1.726562 -13.648438 3.375 -15.328125 C 5.019531 -17.003906 7.195312 -17.84375 9.90625 -17.84375 C 10.769531 -17.84375 11.691406 -17.691406 12.671875 -17.390625 C 13.648438 -17.085938 14.488281 -16.679688 15.1875 -16.171875 L 13.09375 -13.515625 C 11.875 -14.421875 10.679688 -14.875 9.515625 -14.875 C 8.160156 -14.875 7.15625 -14.234375 6.5 -12.953125 C 5.851562 -11.671875 5.53125 -10.28125 5.53125 -8.78125 C 5.53125 -7.726562 5.660156 -6.753906 5.921875 -5.859375 C 6.191406 -4.960938 6.675781 -4.179688 7.375 -3.515625 C 8.082031 -2.847656 8.972656 -2.515625 10.046875 -2.515625 C 11.117188 -2.515625 12.332031 -3.085938 13.6875 -4.234375 Z M 15.46875 -1.21875 "/></g></g></g><g fill="#183e9f" fill-opacity="1"><g transform="translate(181.459445, 232.784121)"><g><path d="M 18.0625 -0.671875 C 17.851562 -0.617188 17.53125 -0.519531 17.09375 -0.375 C 16.664062 -0.238281 16.3125 -0.128906 16.03125 -0.046875 C 15.75 0.0234375 15.414062 0.0976562 15.03125 0.171875 C 14.644531 0.242188 14.300781 0.28125 14 0.28125 C 13.300781 0.28125 12.707031 0.0664062 12.21875 -0.359375 C 11.726562 -0.796875 11.398438 -1.363281 11.234375 -2.0625 C 10.066406 -0.425781 8.316406 0.390625 5.984375 0.390625 C 4.554688 0.390625 3.375 -0.00390625 2.4375 -0.796875 C 1.507812 -1.597656 1.046875 -2.695312 1.046875 -4.09375 C 1.046875 -5.3125 1.335938 -6.335938 1.921875 -7.171875 C 2.503906 -8.015625 3.296875 -8.640625 4.296875 -9.046875 C 5.304688 -9.453125 6.3125 -9.742188 7.3125 -9.921875 C 8.3125 -10.097656 9.382812 -10.1875 10.53125 -10.1875 L 10.53125 -12.453125 C 10.53125 -13.367188 10.332031 -14.003906 9.9375 -14.359375 C 9.539062 -14.722656 8.898438 -14.90625 8.015625 -14.90625 C 6.773438 -14.90625 5.28125 -14.226562 3.53125 -12.875 L 1.8125 -15.640625 C 3.9375 -17.085938 6.296875 -17.8125 8.890625 -17.8125 C 10.753906 -17.8125 12.191406 -17.332031 13.203125 -16.375 C 14.222656 -15.414062 14.734375 -14.003906 14.734375 -12.140625 L 14.734375 -4.546875 C 14.734375 -3.378906 15.015625 -2.796875 15.578125 -2.796875 C 15.765625 -2.796875 16.347656 -2.9375 17.328125 -3.21875 Z M 10.53125 -6.515625 L 10.53125 -7.3125 C 7.125 -7.3125 5.421875 -6.378906 5.421875 -4.515625 C 5.421875 -4.003906 5.625 -3.59375 6.03125 -3.28125 C 6.445312 -2.976562 6.921875 -2.828125 7.453125 -2.828125 C 8.359375 -2.828125 9.097656 -3.207031 9.671875 -3.96875 C 10.242188 -4.726562 10.53125 -5.578125 10.53125 -6.515625 Z M 10.53125 -6.515625 "/></g></g></g><g fill="#183e9f" fill-opacity="1"><g transform="translate(198.745538, 232.784121)"><g><path d="M 6.46875 0 L 2.203125 0 L 2.203125 -25.03125 C 2.203125 -25.050781 2.171875 -25.203125 2.109375 -25.484375 C 2.054688 -25.765625 1.992188 -26.066406 1.921875 -26.390625 C 1.847656 -26.710938 1.8125 -26.890625 1.8125 -26.921875 L 6.46875 -26.921875 Z M 6.46875 0 "/></g></g></g><g fill="#183e9f" fill-opacity="1"><g transform="translate(207.528558, 232.784121)"><g/></g></g><g fill="#183e9f" fill-opacity="1"><g transform="translate(215.576741, 232.784121)"><g><path d="M 21.421875 -2.171875 C 19.953125 -1.265625 18.582031 -0.601562 17.3125 -0.1875 C 16.039062 0.21875 14.585938 0.421875 12.953125 0.421875 C 9.003906 0.421875 5.972656 -0.8125 3.859375 -3.28125 C 1.753906 -5.757812 0.703125 -8.992188 0.703125 -12.984375 C 0.703125 -16.785156 1.804688 -19.921875 4.015625 -22.390625 C 6.234375 -24.867188 9.222656 -26.109375 12.984375 -26.109375 C 14.429688 -26.109375 15.945312 -25.894531 17.53125 -25.46875 C 19.125 -25.050781 20.375 -24.4375 21.28125 -23.625 L 18.765625 -20.40625 C 18.128906 -21.101562 17.285156 -21.660156 16.234375 -22.078125 C 15.191406 -22.503906 14.164062 -22.71875 13.15625 -22.71875 C 11.425781 -22.71875 9.992188 -22.226562 8.859375 -21.25 C 7.734375 -20.269531 6.960938 -19.085938 6.546875 -17.703125 C 6.128906 -16.328125 5.921875 -14.789062 5.921875 -13.09375 C 5.921875 -11.96875 6.066406 -10.828125 6.359375 -9.671875 C 6.648438 -8.515625 7.070312 -7.414062 7.625 -6.375 C 8.1875 -5.34375 8.957031 -4.5 9.9375 -3.84375 C 10.914062 -3.195312 12.015625 -2.875 13.234375 -2.875 C 15.398438 -2.875 17.394531 -3.75 19.21875 -5.5 Z M 21.421875 -2.171875 "/></g></g></g><g fill="#183e9f" fill-opacity="1"><g transform="translate(237.411815, 232.784121)"><g><path d="M 18.0625 -0.671875 C 17.851562 -0.617188 17.53125 -0.519531 17.09375 -0.375 C 16.664062 -0.238281 16.3125 -0.128906 16.03125 -0.046875 C 15.75 0.0234375 15.414062 0.0976562 15.03125 0.171875 C 14.644531 0.242188 14.300781 0.28125 14 0.28125 C 13.300781 0.28125 12.707031 0.0664062 12.21875 -0.359375 C 11.726562 -0.796875 11.398438 -1.363281 11.234375 -2.0625 C 10.066406 -0.425781 8.316406 0.390625 5.984375 0.390625 C 4.554688 0.390625 3.375 -0.00390625 2.4375 -0.796875 C 1.507812 -1.597656 1.046875 -2.695312 1.046875 -4.09375 C 1.046875 -5.3125 1.335938 -6.335938 1.921875 -7.171875 C 2.503906 -8.015625 3.296875 -8.640625 4.296875 -9.046875 C 5.304688 -9.453125 6.3125 -9.742188 7.3125 -9.921875 C 8.3125 -10.097656 9.382812 -10.1875 10.53125 -10.1875 L 10.53125 -12.453125 C 10.53125 -13.367188 10.332031 -14.003906 9.9375 -14.359375 C 9.539062 -14.722656 8.898438 -14.90625 8.015625 -14.90625 C 6.773438 -14.90625 5.28125 -14.226562 3.53125 -12.875 L 1.8125 -15.640625 C 3.9375 -17.085938 6.296875 -17.8125 8.890625 -17.8125 C 10.753906 -17.8125 12.191406 -17.332031 13.203125 -16.375 C 14.222656 -15.414062 14.734375 -14.003906 14.734375 -12.140625 L 14.734375 -4.546875 C 14.734375 -3.378906 15.015625 -2.796875 15.578125 -2.796875 C 15.765625 -2.796875 16.347656 -2.9375 17.328125 -3.21875 Z M 10.53125 -6.515625 L 10.53125 -7.3125 C 7.125 -7.3125 5.421875 -6.378906 5.421875 -4.515625 C 5.421875 -4.003906 5.625 -3.59375 6.03125 -3.28125 C 6.445312 -2.976562 6.921875 -2.828125 7.453125 -2.828125 C 8.359375 -2.828125 9.097656 -3.207031 9.671875 -3.96875 C 10.242188 -4.726562 10.53125 -5.578125 10.53125 -6.515625 Z M 10.53125 -6.515625 "/></g></g></g><g fill="#183e9f" fill-opacity="1"><g transform="translate(254.697908, 232.784121)"><g><path d="M 12.3125 -17.75 L 11.625 -13.578125 L 11.484375 -13.578125 C 10.453125 -13.578125 9.554688 -13.289062 8.796875 -12.71875 C 8.046875 -12.144531 7.304688 -11.359375 6.578125 -10.359375 L 6.578125 0 L 2.375 0 L 2.375 -12.703125 C 2.375 -14.828125 2.003906 -16.390625 1.265625 -17.390625 L 5.703125 -17.75 C 6.210938 -16.582031 6.492188 -15.351562 6.546875 -14.0625 C 7.148438 -15.09375 7.984375 -15.960938 9.046875 -16.671875 C 10.109375 -17.390625 11.195312 -17.75 12.3125 -17.75 Z M 12.3125 -17.75 "/></g></g></g><g fill="#183e9f" fill-opacity="1"><g transform="translate(266.910149, 232.784121)"><g><path d="M 16.3125 -10.296875 C 16.3125 -8.890625 15.71875 -8.1875 14.53125 -8.1875 L 5.359375 -8.1875 C 5.359375 -6.695312 5.753906 -5.363281 6.546875 -4.1875 C 7.335938 -3.007812 8.445312 -2.421875 9.875 -2.421875 C 10.59375 -2.421875 11.34375 -2.59375 12.125 -2.9375 C 12.90625 -3.289062 13.566406 -3.734375 14.109375 -4.265625 L 15.890625 -1.46875 C 15.171875 -0.863281 14.21875 -0.398438 13.03125 -0.078125 C 11.851562 0.234375 10.726562 0.390625 9.65625 0.390625 C 6.945312 0.390625 4.8125 -0.421875 3.25 -2.046875 C 1.6875 -3.671875 0.90625 -5.847656 0.90625 -8.578125 C 0.90625 -11.160156 1.632812 -13.359375 3.09375 -15.171875 C 4.550781 -16.984375 6.539062 -17.890625 9.0625 -17.890625 C 11.351562 -17.890625 13.132812 -17.195312 14.40625 -15.8125 C 15.675781 -14.4375 16.3125 -12.597656 16.3125 -10.296875 Z M 11.9375 -11.71875 C 11.9375 -12.675781 11.691406 -13.460938 11.203125 -14.078125 C 10.710938 -14.703125 10.007812 -15.015625 9.09375 -15.015625 C 8.164062 -15.015625 7.335938 -14.582031 6.609375 -13.71875 C 5.890625 -12.851562 5.503906 -11.929688 5.453125 -10.953125 L 11.34375 -10.953125 C 11.738281 -10.953125 11.9375 -11.207031 11.9375 -11.71875 Z M 11.9375 -11.71875 "/></g></g></g><g fill="#183e9f" fill-opacity="1"><g transform="translate(140.062495, 254.784036)"><g><path d="M 9.40625 0 L 8.015625 0 L 8.015625 -5.15625 L 2.703125 -5.15625 L 2.703125 0 L 1.3125 0 L 1.3125 -9.9375 C 1.3125 -9.9375 1.289062 -10.007812 1.25 -10.15625 C 1.21875 -10.3125 1.179688 -10.472656 1.140625 -10.640625 C 1.109375 -10.804688 1.09375 -10.898438 1.09375 -10.921875 L 2.703125 -10.921875 L 2.703125 -6.1875 L 8.015625 -6.1875 L 8.015625 -10.921875 L 9.40625 -10.921875 Z M 9.40625 0 "/></g></g></g><g fill="#183e9f" fill-opacity="1"><g transform="translate(150.772482, 254.784036)"><g><path d="M 7.640625 0 L 1.296875 0 L 1.296875 -9.9375 C 1.296875 -9.9375 1.273438 -10.007812 1.234375 -10.15625 C 1.203125 -10.3125 1.164062 -10.472656 1.125 -10.640625 C 1.09375 -10.804688 1.078125 -10.898438 1.078125 -10.921875 L 7.640625 -10.921875 L 7.640625 -9.890625 L 2.6875 -9.890625 L 2.6875 -6.125 L 6.53125 -6.125 L 6.53125 -5.09375 L 2.6875 -5.09375 L 2.6875 -1.03125 L 7.640625 -1.03125 Z M 7.640625 0 "/></g></g></g><g fill="#183e9f" fill-opacity="1"><g transform="translate(159.007478, 254.784036)"><g><path d="M 9.203125 0 L 7.671875 0 L 6.40625 -3.75 L 2.8125 -3.75 L 1.53125 0 L 0.265625 0 L 4.0625 -10.921875 L 5.4375 -10.921875 Z M 6.0625 -4.765625 L 4.625 -9.09375 L 3.15625 -4.765625 Z M 6.0625 -4.765625 "/></g></g></g><g fill="#183e9f" fill-opacity="1"><g transform="translate(168.472474, 254.784036)"><g><path d="M 7.28125 0 L 1.296875 0 L 1.296875 -9.9375 C 1.296875 -9.9375 1.273438 -10.007812 1.234375 -10.15625 C 1.203125 -10.3125 1.164062 -10.472656 1.125 -10.640625 C 1.09375 -10.804688 1.078125 -10.898438 1.078125 -10.921875 L 2.6875 -10.921875 L 2.6875 -1.03125 L 7.28125 -1.03125 Z M 7.28125 0 "/></g></g></g><g fill="#183e9f" fill-opacity="1"><g transform="translate(176.182461, 254.784036)"><g><path d="M 5.03125 0 L 3.59375 0 L 3.59375 -9.890625 L 0.359375 -9.890625 L 0.359375 -10.921875 L 8.3125 -10.921875 L 8.3125 -9.890625 L 5.03125 -9.890625 Z M 5.03125 0 "/></g></g></g><g fill="#183e9f" fill-opacity="1"><g transform="translate(184.852447, 254.784036)"><g><path d="M 9.40625 0 L 8.015625 0 L 8.015625 -5.15625 L 2.703125 -5.15625 L 2.703125 0 L 1.3125 0 L 1.3125 -9.9375 C 1.3125 -9.9375 1.289062 -10.007812 1.25 -10.15625 C 1.21875 -10.3125 1.179688 -10.472656 1.140625 -10.640625 C 1.109375 -10.804688 1.09375 -10.898438 1.09375 -10.921875 L 2.703125 -10.921875 L 2.703125 -6.1875 L 8.015625 -6.1875 L 8.015625 -10.921875 L 9.40625 -10.921875 Z M 9.40625 0 "/></g></g></g><g fill="#183e9f" fill-opacity="1"><g transform="translate(195.562434, 254.784036)"><g/></g></g><g fill="#183e9f" fill-opacity="1"><g transform="translate(199.012427, 254.784036)"><g><path d="M 8.453125 -1.875 L 9.109375 -0.875 C 8.703125 -0.539062 8.1875 -0.28125 7.5625 -0.09375 C 6.9375 0.09375 6.34375 0.1875 5.78125 0.1875 C 4.195312 0.1875 2.953125 -0.359375 2.046875 -1.453125 C 1.140625 -2.546875 0.6875 -3.890625 0.6875 -5.484375 C 0.6875 -7.109375 1.140625 -8.441406 2.046875 -9.484375 C 2.960938 -10.535156 4.21875 -11.0625 5.8125 -11.0625 C 6.394531 -11.0625 7 -10.957031 7.625 -10.75 C 8.25 -10.550781 8.734375 -10.265625 9.078125 -9.890625 L 8.296875 -9.015625 C 8.015625 -9.328125 7.632812 -9.570312 7.15625 -9.75 C 6.675781 -9.925781 6.21875 -10.015625 5.78125 -10.015625 C 5.15625 -10.015625 4.609375 -9.878906 4.140625 -9.609375 C 3.671875 -9.347656 3.300781 -8.988281 3.03125 -8.53125 C 2.757812 -8.082031 2.554688 -7.59375 2.421875 -7.0625 C 2.285156 -6.539062 2.21875 -5.988281 2.21875 -5.40625 C 2.21875 -4.800781 2.285156 -4.238281 2.421875 -3.71875 C 2.554688 -3.195312 2.757812 -2.726562 3.03125 -2.3125 C 3.3125 -1.894531 3.6875 -1.5625 4.15625 -1.3125 C 4.632812 -1.0625 5.1875 -0.9375 5.8125 -0.9375 C 6.257812 -0.9375 6.726562 -1.019531 7.21875 -1.1875 C 7.71875 -1.363281 8.128906 -1.59375 8.453125 -1.875 Z M 8.453125 -1.875 "/></g></g></g><g fill="#183e9f" fill-opacity="1"><g transform="translate(208.372423, 254.784036)"><g><path d="M 9.203125 0 L 7.671875 0 L 6.40625 -3.75 L 2.8125 -3.75 L 1.53125 0 L 0.265625 0 L 4.0625 -10.921875 L 5.4375 -10.921875 Z M 6.0625 -4.765625 L 4.625 -9.09375 L 3.15625 -4.765625 Z M 6.0625 -4.765625 "/></g></g></g><g fill="#183e9f" fill-opacity="1"><g transform="translate(217.837419, 254.784036)"><g><path d="M 8.984375 0 L 7.359375 0 L 4.546875 -4.9375 C 4.316406 -4.914062 3.941406 -4.90625 3.421875 -4.90625 L 2.671875 -4.90625 L 2.671875 0 L 1.28125 0 L 1.28125 -9.9375 C 1.28125 -9.9375 1.257812 -10.007812 1.21875 -10.15625 C 1.1875 -10.3125 1.148438 -10.472656 1.109375 -10.640625 C 1.078125 -10.804688 1.0625 -10.898438 1.0625 -10.921875 L 4.3125 -10.921875 C 6.78125 -10.921875 8.015625 -9.914062 8.015625 -7.90625 C 8.015625 -7.300781 7.8125 -6.738281 7.40625 -6.21875 C 7 -5.707031 6.503906 -5.363281 5.921875 -5.1875 Z M 2.671875 -5.921875 L 3.875 -5.921875 C 4.695312 -5.921875 5.347656 -6.070312 5.828125 -6.375 C 6.316406 -6.6875 6.5625 -7.226562 6.5625 -8 C 6.5625 -8.601562 6.34375 -9.066406 5.90625 -9.390625 C 5.476562 -9.722656 4.945312 -9.890625 4.3125 -9.890625 L 2.671875 -9.890625 Z M 2.671875 -5.921875 "/></g></g></g><g fill="#183e9f" fill-opacity="1"><g transform="translate(226.702413, 254.784036)"><g><path d="M 7.640625 0 L 1.296875 0 L 1.296875 -9.9375 C 1.296875 -9.9375 1.273438 -10.007812 1.234375 -10.15625 C 1.203125 -10.3125 1.164062 -10.472656 1.125 -10.640625 C 1.09375 -10.804688 1.078125 -10.898438 1.078125 -10.921875 L 7.640625 -10.921875 L 7.640625 -9.890625 L 2.6875 -9.890625 L 2.6875 -6.125 L 6.53125 -6.125 L 6.53125 -5.09375 L 2.6875 -5.09375 L 2.6875 -1.03125 L 7.640625 -1.03125 Z M 7.640625 0 "/></g></g></g></svg>