<svg xmlns="http://www.w3.org/2000/svg" xmlns:xlink="http://www.w3.org/1999/xlink" width="500" zoomAndPan="magnify" viewBox="0 0 375 374.999991" height="500" preserveAspectRatio="xMidYMid meet" version="1.0"><defs><filter x="0%" y="0%" width="100%" height="100%" id="id1"><feColorMatrix values="0 0 0 0 1 0 0 0 0 1 0 0 0 0 1 0 0 0 1 0" color-interpolation-filters="sRGB"/></filter><g/><clipPath id="id2"><path d="M 111 80.070312 L 265 80.070312 L 265 231 L 111 231 Z M 111 80.070312 " clip-rule="nonzero"/></clipPath><clipPath id="id3"><path d="M 154.390625 129.761719 L 220.609375 129.761719 L 220.609375 187.898438 L 154.390625 187.898438 Z M 154.390625 129.761719 " clip-rule="nonzero"/></clipPath><mask id="id4"><g filter="url(#id1)"><rect x="-37.5" width="450" fill="#000000" y="-37.499999" height="449.999989" fill-opacity="0.8196"/></g></mask><clipPath id="id5"><path d="M 0.152344 0.617188 L 52.847656 0.617188 L 52.847656 46.886719 L 0.152344 46.886719 Z M 0.152344 0.617188 " clip-rule="nonzero"/></clipPath><clipPath id="id6"><rect x="0" width="54" y="0" height="48"/></clipPath></defs><path fill="#1b9ce4" d="M 138.449219 151.15625 C 138.449219 125.230469 159.46875 104.210938 185.394531 104.210938 C 197.25 104.210938 208.074219 108.605469 216.335938 115.855469 C 207.347656 101.921875 191.691406 92.695312 173.878906 92.695312 C 145.996094 92.695312 123.390625 115.300781 123.390625 143.183594 C 123.390625 167.410156 140.453125 187.648438 163.21875 192.542969 C 148.472656 184.625 138.449219 169.0625 138.449219 151.15625 " fill-opacity="1" fill-rule="nonzero"/><g clip-path="url(#id2)"><path fill="#183e9f" d="M 233.882812 80.417969 C 232.957031 80.070312 232.546875 81.039062 232.386719 82.339844 C 232.078125 84.878906 233.09375 87.394531 235.019531 89.082031 C 255.148438 106.71875 251.242188 149.933594 238.085938 147.355469 C 229.449219 145.664062 238.648438 119.992188 231.445312 119.117188 C 226.664062 118.535156 222.414062 130.4375 222.71875 146.128906 C 222.890625 155.105469 225.773438 162.515625 228.308594 168.945312 C 231.976562 178.261719 228.605469 188.925781 220.167969 194.3125 C 193.3125 211.449219 157.246094 208.292969 133.789062 184.832031 C 121.398438 172.441406 114.671875 156.527344 113.613281 140.3125 C 108.429688 164.324219 115.191406 190.394531 133.902344 209.023438 C 157.484375 232.507812 195.136719 237.394531 223.957031 220.753906 C 251.3125 204.953125 262.753906 172.445312 264.382812 142.21875 C 266.453125 103.773438 244.386719 84.375 233.882812 80.417969 Z M 230.113281 101.457031 C 240.570312 110.644531 244.523438 126.742188 244.058594 139.703125 C 245.699219 135.683594 246.589844 129.796875 246.386719 123.496094 C 246.113281 115.070312 244.109375 107.179688 240.753906 100.785156 C 236.417969 96.613281 232.144531 93.972656 228.945312 92.765625 C 227.996094 92.410156 227.589844 93.429688 227.4375 94.777344 C 227.15625 97.304688 228.203125 99.777344 230.113281 101.457031 " fill-opacity="1" fill-rule="nonzero"/></g><g clip-path="url(#id3)"><path fill="#183e9f" d="M 154.394531 146.910156 C 154.394531 165.375 187.5 187.898438 187.5 187.898438 C 187.5 187.898438 220.460938 165.21875 220.605469 146.910156 C 220.605469 137.460938 212.914062 129.761719 203.472656 129.761719 C 196.214844 129.761719 189.964844 134.414062 187.5 140.800781 C 185.035156 134.414062 178.785156 129.761719 171.527344 129.761719 C 162.085938 129.761719 154.394531 137.460938 154.394531 146.910156 " fill-opacity="1" fill-rule="nonzero"/></g><g mask="url(#id4)"><g transform="matrix(1, 0, 0, 1, 161, 141)"><g clip-path="url(#id6)"><g clip-path="url(#id5)"><path fill="#54afe6" d="M 0.152344 14.269531 C 0.152344 28.964844 26.5 46.886719 26.5 46.886719 C 26.5 46.886719 52.730469 28.835938 52.847656 14.269531 C 52.847656 6.746094 46.726562 0.617188 39.210938 0.617188 C 33.433594 0.617188 28.460938 4.320312 26.5 9.40625 C 24.539062 4.320312 19.566406 0.617188 13.789062 0.617188 C 6.273438 0.617188 0.152344 6.746094 0.152344 14.269531 " fill-opacity="1" fill-rule="nonzero"/></g></g></g></g><g fill="#183172" fill-opacity="1"><g transform="translate(92.485325, 271.533966)"><g><path d="M 27.515625 -0.03125 L 22.78125 -0.03125 L 22.78125 -17.390625 C 22.78125 -17.722656 22.835938 -18.566406 22.953125 -19.921875 C 22.890625 -19.734375 22.804688 -19.46875 22.703125 -19.125 C 22.597656 -18.789062 22.5 -18.484375 22.40625 -18.203125 C 22.3125 -17.921875 22.21875 -17.648438 22.125 -17.390625 L 15.859375 0 L 13.265625 0 L 6.828125 -17.390625 C 6.734375 -17.648438 6.640625 -17.921875 6.546875 -18.203125 C 6.453125 -18.484375 6.351562 -18.789062 6.25 -19.125 C 6.144531 -19.46875 6.054688 -19.734375 5.984375 -19.921875 C 5.984375 -19.703125 6.007812 -19.300781 6.0625 -18.71875 C 6.125 -18.132812 6.15625 -17.691406 6.15625 -17.390625 L 6.15625 -0.03125 L 2.34375 -0.03125 L 2.34375 -23.484375 C 2.34375 -23.503906 2.300781 -23.675781 2.21875 -24 C 2.132812 -24.332031 2.050781 -24.671875 1.96875 -25.015625 C 1.894531 -25.367188 1.859375 -25.570312 1.859375 -25.625 L 8.578125 -25.625 L 14.03125 -10.921875 C 14.289062 -10.222656 14.628906 -8.8125 15.046875 -6.6875 C 15.097656 -6.851562 15.222656 -7.441406 15.421875 -8.453125 C 15.617188 -9.460938 15.8125 -10.238281 16 -10.78125 L 21.34375 -25.625 L 27.515625 -25.625 Z M 27.515625 -0.03125 "/></g></g></g><g fill="#183172" fill-opacity="1"><g transform="translate(121.808703, 271.533966)"><g><path d="M 16.3125 -10.296875 C 16.3125 -8.890625 15.71875 -8.1875 14.53125 -8.1875 L 5.359375 -8.1875 C 5.359375 -6.695312 5.753906 -5.363281 6.546875 -4.1875 C 7.335938 -3.007812 8.445312 -2.421875 9.875 -2.421875 C 10.59375 -2.421875 11.34375 -2.59375 12.125 -2.9375 C 12.90625 -3.289062 13.566406 -3.734375 14.109375 -4.265625 L 15.890625 -1.46875 C 15.171875 -0.863281 14.21875 -0.398438 13.03125 -0.078125 C 11.851562 0.234375 10.726562 0.390625 9.65625 0.390625 C 6.945312 0.390625 4.8125 -0.421875 3.25 -2.046875 C 1.6875 -3.671875 0.90625 -5.847656 0.90625 -8.578125 C 0.90625 -11.160156 1.632812 -13.359375 3.09375 -15.171875 C 4.550781 -16.984375 6.539062 -17.890625 9.0625 -17.890625 C 11.351562 -17.890625 13.132812 -17.195312 14.40625 -15.8125 C 15.675781 -14.4375 16.3125 -12.597656 16.3125 -10.296875 Z M 11.9375 -11.71875 C 11.9375 -12.675781 11.691406 -13.460938 11.203125 -14.078125 C 10.710938 -14.703125 10.007812 -15.015625 9.09375 -15.015625 C 8.164062 -15.015625 7.335938 -14.582031 6.609375 -13.71875 C 5.890625 -12.851562 5.503906 -11.929688 5.453125 -10.953125 L 11.34375 -10.953125 C 11.738281 -10.953125 11.9375 -11.207031 11.9375 -11.71875 Z M 11.9375 -11.71875 "/></g></g></g><g fill="#183172" fill-opacity="1"><g transform="translate(139.094796, 271.533966)"><g><path d="M 18.03125 -0.109375 L 13.796875 0.3125 C 13.609375 -0.195312 13.429688 -0.894531 13.265625 -1.78125 C 12.796875 -1.101562 12.097656 -0.566406 11.171875 -0.171875 C 10.253906 0.222656 9.34375 0.421875 8.4375 0.421875 C 6.082031 0.421875 4.25 -0.46875 2.9375 -2.25 C 1.632812 -4.039062 0.984375 -6.148438 0.984375 -8.578125 C 0.984375 -11.234375 1.6875 -13.4375 3.09375 -15.1875 C 4.507812 -16.9375 6.507812 -17.8125 9.09375 -17.8125 C 10.78125 -17.8125 12.078125 -17.4375 12.984375 -16.6875 C 12.960938 -17.320312 12.953125 -18.035156 12.953125 -18.828125 L 12.953125 -24.984375 L 12.421875 -26.875 L 17.15625 -26.875 L 17.15625 -4.96875 C 17.15625 -2.800781 17.445312 -1.179688 18.03125 -0.109375 Z M 12.953125 -4.515625 L 12.953125 -10.21875 C 12.953125 -11.550781 12.679688 -12.65625 12.140625 -13.53125 C 11.609375 -14.40625 10.722656 -14.84375 9.484375 -14.84375 C 8.523438 -14.84375 7.734375 -14.484375 7.109375 -13.765625 C 6.492188 -13.054688 6.082031 -12.273438 5.875 -11.421875 C 5.664062 -10.578125 5.5625 -9.6875 5.5625 -8.75 C 5.5625 -7.207031 5.890625 -5.8125 6.546875 -4.5625 C 7.203125 -3.3125 8.226562 -2.6875 9.625 -2.6875 C 10.25 -2.6875 10.867188 -2.851562 11.484375 -3.1875 C 12.109375 -3.53125 12.597656 -3.972656 12.953125 -4.515625 Z M 12.953125 -4.515625 "/></g></g></g><g fill="#183172" fill-opacity="1"><g transform="translate(158.620384, 271.533966)"><g><path d="M 6.46875 0 L 2.28125 0 L 2.28125 -15.5 C 2.28125 -15.53125 2.25 -15.679688 2.1875 -15.953125 C 2.125 -16.234375 2.054688 -16.535156 1.984375 -16.859375 C 1.921875 -17.191406 1.890625 -17.367188 1.890625 -17.390625 L 6.46875 -17.390625 Z M 6.265625 -25.65625 C 6.796875 -25.113281 7.0625 -24.46875 7.0625 -23.71875 C 7.0625 -22.976562 6.800781 -22.34375 6.28125 -21.8125 C 5.757812 -21.289062 5.125 -21.03125 4.375 -21.03125 C 3.625 -21.03125 2.988281 -21.289062 2.46875 -21.8125 C 1.945312 -22.34375 1.6875 -22.976562 1.6875 -23.71875 C 1.6875 -24.46875 1.945312 -25.109375 2.46875 -25.640625 C 2.988281 -26.179688 3.625 -26.453125 4.375 -26.453125 C 5.125 -26.453125 5.753906 -26.1875 6.265625 -25.65625 Z M 6.265625 -25.65625 "/></g></g></g><g fill="#183172" fill-opacity="1"><g transform="translate(167.403404, 271.533966)"><g><path d="M 15.46875 -1.21875 C 14.300781 -0.632812 13.285156 -0.21875 12.421875 0.03125 C 11.554688 0.289062 10.554688 0.421875 9.421875 0.421875 C 6.710938 0.421875 4.613281 -0.410156 3.125 -2.078125 C 1.644531 -3.742188 0.90625 -5.957031 0.90625 -8.71875 C 0.90625 -11.445312 1.726562 -13.648438 3.375 -15.328125 C 5.019531 -17.003906 7.195312 -17.84375 9.90625 -17.84375 C 10.769531 -17.84375 11.691406 -17.691406 12.671875 -17.390625 C 13.648438 -17.085938 14.488281 -16.679688 15.1875 -16.171875 L 13.09375 -13.515625 C 11.875 -14.421875 10.679688 -14.875 9.515625 -14.875 C 8.160156 -14.875 7.15625 -14.234375 6.5 -12.953125 C 5.851562 -11.671875 5.53125 -10.28125 5.53125 -8.78125 C 5.53125 -7.726562 5.660156 -6.753906 5.921875 -5.859375 C 6.191406 -4.960938 6.675781 -4.179688 7.375 -3.515625 C 8.082031 -2.847656 8.972656 -2.515625 10.046875 -2.515625 C 11.117188 -2.515625 12.332031 -3.085938 13.6875 -4.234375 Z M 15.46875 -1.21875 "/></g></g></g><g fill="#183172" fill-opacity="1"><g transform="translate(183.149844, 271.533966)"><g><path d="M 18.0625 -0.671875 C 17.851562 -0.617188 17.53125 -0.519531 17.09375 -0.375 C 16.664062 -0.238281 16.3125 -0.128906 16.03125 -0.046875 C 15.75 0.0234375 15.414062 0.0976562 15.03125 0.171875 C 14.644531 0.242188 14.300781 0.28125 14 0.28125 C 13.300781 0.28125 12.707031 0.0664062 12.21875 -0.359375 C 11.726562 -0.796875 11.398438 -1.363281 11.234375 -2.0625 C 10.066406 -0.425781 8.316406 0.390625 5.984375 0.390625 C 4.554688 0.390625 3.375 -0.00390625 2.4375 -0.796875 C 1.507812 -1.597656 1.046875 -2.695312 1.046875 -4.09375 C 1.046875 -5.3125 1.335938 -6.335938 1.921875 -7.171875 C 2.503906 -8.015625 3.296875 -8.640625 4.296875 -9.046875 C 5.304688 -9.453125 6.3125 -9.742188 7.3125 -9.921875 C 8.3125 -10.097656 9.382812 -10.1875 10.53125 -10.1875 L 10.53125 -12.453125 C 10.53125 -13.367188 10.332031 -14.003906 9.9375 -14.359375 C 9.539062 -14.722656 8.898438 -14.90625 8.015625 -14.90625 C 6.773438 -14.90625 5.28125 -14.226562 3.53125 -12.875 L 1.8125 -15.640625 C 3.9375 -17.085938 6.296875 -17.8125 8.890625 -17.8125 C 10.753906 -17.8125 12.191406 -17.332031 13.203125 -16.375 C 14.222656 -15.414062 14.734375 -14.003906 14.734375 -12.140625 L 14.734375 -4.546875 C 14.734375 -3.378906 15.015625 -2.796875 15.578125 -2.796875 C 15.765625 -2.796875 16.347656 -2.9375 17.328125 -3.21875 Z M 10.53125 -6.515625 L 10.53125 -7.3125 C 7.125 -7.3125 5.421875 -6.378906 5.421875 -4.515625 C 5.421875 -4.003906 5.625 -3.59375 6.03125 -3.28125 C 6.445312 -2.976562 6.921875 -2.828125 7.453125 -2.828125 C 8.359375 -2.828125 9.097656 -3.207031 9.671875 -3.96875 C 10.242188 -4.726562 10.53125 -5.578125 10.53125 -6.515625 Z M 10.53125 -6.515625 "/></g></g></g><g fill="#183172" fill-opacity="1"><g transform="translate(200.435937, 271.533966)"><g><path d="M 6.46875 0 L 2.203125 0 L 2.203125 -25.03125 C 2.203125 -25.050781 2.171875 -25.203125 2.109375 -25.484375 C 2.054688 -25.765625 1.992188 -26.066406 1.921875 -26.390625 C 1.847656 -26.710938 1.8125 -26.890625 1.8125 -26.921875 L 6.46875 -26.921875 Z M 6.46875 0 "/></g></g></g><g fill="#183172" fill-opacity="1"><g transform="translate(209.218957, 271.533966)"><g/></g></g><g fill="#183172" fill-opacity="1"><g transform="translate(217.26714, 271.533966)"><g><path d="M 21.421875 -2.171875 C 19.953125 -1.265625 18.582031 -0.601562 17.3125 -0.1875 C 16.039062 0.21875 14.585938 0.421875 12.953125 0.421875 C 9.003906 0.421875 5.972656 -0.8125 3.859375 -3.28125 C 1.753906 -5.757812 0.703125 -8.992188 0.703125 -12.984375 C 0.703125 -16.785156 1.804688 -19.921875 4.015625 -22.390625 C 6.234375 -24.867188 9.222656 -26.109375 12.984375 -26.109375 C 14.429688 -26.109375 15.945312 -25.894531 17.53125 -25.46875 C 19.125 -25.050781 20.375 -24.4375 21.28125 -23.625 L 18.765625 -20.40625 C 18.128906 -21.101562 17.285156 -21.660156 16.234375 -22.078125 C 15.191406 -22.503906 14.164062 -22.71875 13.15625 -22.71875 C 11.425781 -22.71875 9.992188 -22.226562 8.859375 -21.25 C 7.734375 -20.269531 6.960938 -19.085938 6.546875 -17.703125 C 6.128906 -16.328125 5.921875 -14.789062 5.921875 -13.09375 C 5.921875 -11.96875 6.066406 -10.828125 6.359375 -9.671875 C 6.648438 -8.515625 7.070312 -7.414062 7.625 -6.375 C 8.1875 -5.34375 8.957031 -4.5 9.9375 -3.84375 C 10.914062 -3.195312 12.015625 -2.875 13.234375 -2.875 C 15.398438 -2.875 17.394531 -3.75 19.21875 -5.5 Z M 21.421875 -2.171875 "/></g></g></g><g fill="#183172" fill-opacity="1"><g transform="translate(239.102214, 271.533966)"><g><path d="M 18.0625 -0.671875 C 17.851562 -0.617188 17.53125 -0.519531 17.09375 -0.375 C 16.664062 -0.238281 16.3125 -0.128906 16.03125 -0.046875 C 15.75 0.0234375 15.414062 0.0976562 15.03125 0.171875 C 14.644531 0.242188 14.300781 0.28125 14 0.28125 C 13.300781 0.28125 12.707031 0.0664062 12.21875 -0.359375 C 11.726562 -0.796875 11.398438 -1.363281 11.234375 -2.0625 C 10.066406 -0.425781 8.316406 0.390625 5.984375 0.390625 C 4.554688 0.390625 3.375 -0.00390625 2.4375 -0.796875 C 1.507812 -1.597656 1.046875 -2.695312 1.046875 -4.09375 C 1.046875 -5.3125 1.335938 -6.335938 1.921875 -7.171875 C 2.503906 -8.015625 3.296875 -8.640625 4.296875 -9.046875 C 5.304688 -9.453125 6.3125 -9.742188 7.3125 -9.921875 C 8.3125 -10.097656 9.382812 -10.1875 10.53125 -10.1875 L 10.53125 -12.453125 C 10.53125 -13.367188 10.332031 -14.003906 9.9375 -14.359375 C 9.539062 -14.722656 8.898438 -14.90625 8.015625 -14.90625 C 6.773438 -14.90625 5.28125 -14.226562 3.53125 -12.875 L 1.8125 -15.640625 C 3.9375 -17.085938 6.296875 -17.8125 8.890625 -17.8125 C 10.753906 -17.8125 12.191406 -17.332031 13.203125 -16.375 C 14.222656 -15.414062 14.734375 -14.003906 14.734375 -12.140625 L 14.734375 -4.546875 C 14.734375 -3.378906 15.015625 -2.796875 15.578125 -2.796875 C 15.765625 -2.796875 16.347656 -2.9375 17.328125 -3.21875 Z M 10.53125 -6.515625 L 10.53125 -7.3125 C 7.125 -7.3125 5.421875 -6.378906 5.421875 -4.515625 C 5.421875 -4.003906 5.625 -3.59375 6.03125 -3.28125 C 6.445312 -2.976562 6.921875 -2.828125 7.453125 -2.828125 C 8.359375 -2.828125 9.097656 -3.207031 9.671875 -3.96875 C 10.242188 -4.726562 10.53125 -5.578125 10.53125 -6.515625 Z M 10.53125 -6.515625 "/></g></g></g><g fill="#183172" fill-opacity="1"><g transform="translate(256.388307, 271.533966)"><g><path d="M 12.3125 -17.75 L 11.625 -13.578125 L 11.484375 -13.578125 C 10.453125 -13.578125 9.554688 -13.289062 8.796875 -12.71875 C 8.046875 -12.144531 7.304688 -11.359375 6.578125 -10.359375 L 6.578125 0 L 2.375 0 L 2.375 -12.703125 C 2.375 -14.828125 2.003906 -16.390625 1.265625 -17.390625 L 5.703125 -17.75 C 6.210938 -16.582031 6.492188 -15.351562 6.546875 -14.0625 C 7.148438 -15.09375 7.984375 -15.960938 9.046875 -16.671875 C 10.109375 -17.390625 11.195312 -17.75 12.3125 -17.75 Z M 12.3125 -17.75 "/></g></g></g><g fill="#183172" fill-opacity="1"><g transform="translate(268.600548, 271.533966)"><g><path d="M 16.3125 -10.296875 C 16.3125 -8.890625 15.71875 -8.1875 14.53125 -8.1875 L 5.359375 -8.1875 C 5.359375 -6.695312 5.753906 -5.363281 6.546875 -4.1875 C 7.335938 -3.007812 8.445312 -2.421875 9.875 -2.421875 C 10.59375 -2.421875 11.34375 -2.59375 12.125 -2.9375 C 12.90625 -3.289062 13.566406 -3.734375 14.109375 -4.265625 L 15.890625 -1.46875 C 15.171875 -0.863281 14.21875 -0.398438 13.03125 -0.078125 C 11.851562 0.234375 10.726562 0.390625 9.65625 0.390625 C 6.945312 0.390625 4.8125 -0.421875 3.25 -2.046875 C 1.6875 -3.671875 0.90625 -5.847656 0.90625 -8.578125 C 0.90625 -11.160156 1.632812 -13.359375 3.09375 -15.171875 C 4.550781 -16.984375 6.539062 -17.890625 9.0625 -17.890625 C 11.351562 -17.890625 13.132812 -17.195312 14.40625 -15.8125 C 15.675781 -14.4375 16.3125 -12.597656 16.3125 -10.296875 Z M 11.9375 -11.71875 C 11.9375 -12.675781 11.691406 -13.460938 11.203125 -14.078125 C 10.710938 -14.703125 10.007812 -15.015625 9.09375 -15.015625 C 8.164062 -15.015625 7.335938 -14.582031 6.609375 -13.71875 C 5.890625 -12.851562 5.503906 -11.929688 5.453125 -10.953125 L 11.34375 -10.953125 C 11.738281 -10.953125 11.9375 -11.207031 11.9375 -11.71875 Z M 11.9375 -11.71875 "/></g></g></g><g fill="#183e9f" fill-opacity="1"><g transform="translate(138.372087, 293.533896)"><g><path d="M 9.40625 0 L 8.015625 0 L 8.015625 -5.15625 L 2.703125 -5.15625 L 2.703125 0 L 1.3125 0 L 1.3125 -9.9375 C 1.3125 -9.9375 1.289062 -10.007812 1.25 -10.15625 C 1.21875 -10.3125 1.179688 -10.472656 1.140625 -10.640625 C 1.109375 -10.804688 1.09375 -10.898438 1.09375 -10.921875 L 2.703125 -10.921875 L 2.703125 -6.1875 L 8.015625 -6.1875 L 8.015625 -10.921875 L 9.40625 -10.921875 Z M 9.40625 0 "/></g></g></g><g fill="#183e9f" fill-opacity="1"><g transform="translate(149.082074, 293.533896)"><g><path d="M 7.640625 0 L 1.296875 0 L 1.296875 -9.9375 C 1.296875 -9.9375 1.273438 -10.007812 1.234375 -10.15625 C 1.203125 -10.3125 1.164062 -10.472656 1.125 -10.640625 C 1.09375 -10.804688 1.078125 -10.898438 1.078125 -10.921875 L 7.640625 -10.921875 L 7.640625 -9.890625 L 2.6875 -9.890625 L 2.6875 -6.125 L 6.53125 -6.125 L 6.53125 -5.09375 L 2.6875 -5.09375 L 2.6875 -1.03125 L 7.640625 -1.03125 Z M 7.640625 0 "/></g></g></g><g fill="#183e9f" fill-opacity="1"><g transform="translate(157.31707, 293.533896)"><g><path d="M 9.203125 0 L 7.671875 0 L 6.40625 -3.75 L 2.8125 -3.75 L 1.53125 0 L 0.265625 0 L 4.0625 -10.921875 L 5.4375 -10.921875 Z M 6.0625 -4.765625 L 4.625 -9.09375 L 3.15625 -4.765625 Z M 6.0625 -4.765625 "/></g></g></g><g fill="#183e9f" fill-opacity="1"><g transform="translate(166.782065, 293.533896)"><g><path d="M 7.28125 0 L 1.296875 0 L 1.296875 -9.9375 C 1.296875 -9.9375 1.273438 -10.007812 1.234375 -10.15625 C 1.203125 -10.3125 1.164062 -10.472656 1.125 -10.640625 C 1.09375 -10.804688 1.078125 -10.898438 1.078125 -10.921875 L 2.6875 -10.921875 L 2.6875 -1.03125 L 7.28125 -1.03125 Z M 7.28125 0 "/></g></g></g><g fill="#183e9f" fill-opacity="1"><g transform="translate(174.492053, 293.533896)"><g><path d="M 5.03125 0 L 3.59375 0 L 3.59375 -9.890625 L 0.359375 -9.890625 L 0.359375 -10.921875 L 8.3125 -10.921875 L 8.3125 -9.890625 L 5.03125 -9.890625 Z M 5.03125 0 "/></g></g></g><g fill="#183e9f" fill-opacity="1"><g transform="translate(183.162039, 293.533896)"><g><path d="M 9.40625 0 L 8.015625 0 L 8.015625 -5.15625 L 2.703125 -5.15625 L 2.703125 0 L 1.3125 0 L 1.3125 -9.9375 C 1.3125 -9.9375 1.289062 -10.007812 1.25 -10.15625 C 1.21875 -10.3125 1.179688 -10.472656 1.140625 -10.640625 C 1.109375 -10.804688 1.09375 -10.898438 1.09375 -10.921875 L 2.703125 -10.921875 L 2.703125 -6.1875 L 8.015625 -6.1875 L 8.015625 -10.921875 L 9.40625 -10.921875 Z M 9.40625 0 "/></g></g></g><g fill="#183e9f" fill-opacity="1"><g transform="translate(193.872026, 293.533896)"><g/></g></g><g fill="#183e9f" fill-opacity="1"><g transform="translate(197.322019, 293.533896)"><g><path d="M 8.453125 -1.875 L 9.109375 -0.875 C 8.703125 -0.539062 8.1875 -0.28125 7.5625 -0.09375 C 6.9375 0.09375 6.34375 0.1875 5.78125 0.1875 C 4.195312 0.1875 2.953125 -0.359375 2.046875 -1.453125 C 1.140625 -2.546875 0.6875 -3.890625 0.6875 -5.484375 C 0.6875 -7.109375 1.140625 -8.441406 2.046875 -9.484375 C 2.960938 -10.535156 4.21875 -11.0625 5.8125 -11.0625 C 6.394531 -11.0625 7 -10.957031 7.625 -10.75 C 8.25 -10.550781 8.734375 -10.265625 9.078125 -9.890625 L 8.296875 -9.015625 C 8.015625 -9.328125 7.632812 -9.570312 7.15625 -9.75 C 6.675781 -9.925781 6.21875 -10.015625 5.78125 -10.015625 C 5.15625 -10.015625 4.609375 -9.878906 4.140625 -9.609375 C 3.671875 -9.347656 3.300781 -8.988281 3.03125 -8.53125 C 2.757812 -8.082031 2.554688 -7.59375 2.421875 -7.0625 C 2.285156 -6.539062 2.21875 -5.988281 2.21875 -5.40625 C 2.21875 -4.800781 2.285156 -4.238281 2.421875 -3.71875 C 2.554688 -3.195312 2.757812 -2.726562 3.03125 -2.3125 C 3.3125 -1.894531 3.6875 -1.5625 4.15625 -1.3125 C 4.632812 -1.0625 5.1875 -0.9375 5.8125 -0.9375 C 6.257812 -0.9375 6.726562 -1.019531 7.21875 -1.1875 C 7.71875 -1.363281 8.128906 -1.59375 8.453125 -1.875 Z M 8.453125 -1.875 "/></g></g></g><g fill="#183e9f" fill-opacity="1"><g transform="translate(206.682015, 293.533896)"><g><path d="M 9.203125 0 L 7.671875 0 L 6.40625 -3.75 L 2.8125 -3.75 L 1.53125 0 L 0.265625 0 L 4.0625 -10.921875 L 5.4375 -10.921875 Z M 6.0625 -4.765625 L 4.625 -9.09375 L 3.15625 -4.765625 Z M 6.0625 -4.765625 "/></g></g></g><g fill="#183e9f" fill-opacity="1"><g transform="translate(216.14701, 293.533896)"><g><path d="M 8.984375 0 L 7.359375 0 L 4.546875 -4.9375 C 4.316406 -4.914062 3.941406 -4.90625 3.421875 -4.90625 L 2.671875 -4.90625 L 2.671875 0 L 1.28125 0 L 1.28125 -9.9375 C 1.28125 -9.9375 1.257812 -10.007812 1.21875 -10.15625 C 1.1875 -10.3125 1.148438 -10.472656 1.109375 -10.640625 C 1.078125 -10.804688 1.0625 -10.898438 1.0625 -10.921875 L 4.3125 -10.921875 C 6.78125 -10.921875 8.015625 -9.914062 8.015625 -7.90625 C 8.015625 -7.300781 7.8125 -6.738281 7.40625 -6.21875 C 7 -5.707031 6.503906 -5.363281 5.921875 -5.1875 Z M 2.671875 -5.921875 L 3.875 -5.921875 C 4.695312 -5.921875 5.347656 -6.070312 5.828125 -6.375 C 6.316406 -6.6875 6.5625 -7.226562 6.5625 -8 C 6.5625 -8.601562 6.34375 -9.066406 5.90625 -9.390625 C 5.476562 -9.722656 4.945312 -9.890625 4.3125 -9.890625 L 2.671875 -9.890625 Z M 2.671875 -5.921875 "/></g></g></g><g fill="#183e9f" fill-opacity="1"><g transform="translate(225.012004, 293.533896)"><g><path d="M 7.640625 0 L 1.296875 0 L 1.296875 -9.9375 C 1.296875 -9.9375 1.273438 -10.007812 1.234375 -10.15625 C 1.203125 -10.3125 1.164062 -10.472656 1.125 -10.640625 C 1.09375 -10.804688 1.078125 -10.898438 1.078125 -10.921875 L 7.640625 -10.921875 L 7.640625 -9.890625 L 2.6875 -9.890625 L 2.6875 -6.125 L 6.53125 -6.125 L 6.53125 -5.09375 L 2.6875 -5.09375 L 2.6875 -1.03125 L 7.640625 -1.03125 Z M 7.640625 0 "/></g></g></g></svg>